<?xml version="1.0" encoding="UTF-8" standalone="no"?>
<!-- Created with Inkscape (http://www.inkscape.org/) -->
<svg
   xmlns:dc="http://purl.org/dc/elements/1.1/"
   xmlns:cc="http://creativecommons.org/ns#"
   xmlns:rdf="http://www.w3.org/1999/02/22-rdf-syntax-ns#"
   xmlns:svg="http://www.w3.org/2000/svg"
   xmlns="http://www.w3.org/2000/svg"
   xmlns:xlink="http://www.w3.org/1999/xlink"
   xmlns:sodipodi="http://sodipodi.sourceforge.net/DTD/sodipodi-0.dtd"
   xmlns:inkscape="http://www.inkscape.org/namespaces/inkscape"
   width="128"
   height="128"
   id="svg2"
   sodipodi:version="0.32"
   inkscape:version="0.46"
   version="1.0"
   sodipodi:docname="crystal 128 reload.svg"
   inkscape:output_extension="org.inkscape.output.svg.inkscape">
  <defs
     id="defs4">
    <linearGradient
       id="linearGradient3207">
      <stop
         style="stop-color:#ffb434;stop-opacity:1;"
         offset="0"
         id="stop3209" />
      <stop
         style="stop-color:#ff9327;stop-opacity:1;"
         offset="1"
         id="stop3211" />
    </linearGradient>
    <linearGradient
       inkscape:collect="always"
       id="linearGradient3180">
      <stop
         style="stop-color:#ffffff;stop-opacity:1;"
         offset="0"
         id="stop3182" />
      <stop
         style="stop-color:#ffffff;stop-opacity:0;"
         offset="1"
         id="stop3184" />
    </linearGradient>
    <linearGradient
       id="linearGradient3170">
      <stop
         style="stop-color:#ff801f;stop-opacity:1;"
         offset="0"
         id="stop3172" />
      <stop
         style="stop-color:#ffd03f;stop-opacity:1;"
         offset="1"
         id="stop3174" />
    </linearGradient>
    <inkscape:perspective
       sodipodi:type="inkscape:persp3d"
       inkscape:vp_x="0 : 526.18109 : 1"
       inkscape:vp_y="0 : 1000 : 0"
       inkscape:vp_z="744.09448 : 526.18109 : 1"
       inkscape:persp3d-origin="372.04724 : 350.78739 : 1"
       id="perspective10" />
    <inkscape:perspective
       id="perspective2390"
       inkscape:persp3d-origin="372.04724 : 350.78739 : 1"
       inkscape:vp_z="744.09448 : 526.18109 : 1"
       inkscape:vp_y="0 : 1000 : 0"
       inkscape:vp_x="0 : 526.18109 : 1"
       sodipodi:type="inkscape:persp3d" />
    <linearGradient
       inkscape:collect="always"
       xlink:href="#linearGradient3170"
       id="linearGradient3176"
       x1="275.89508"
       y1="202.89429"
       x2="200.47446"
       y2="201.21669"
       gradientUnits="userSpaceOnUse" />
    <linearGradient
       inkscape:collect="always"
       xlink:href="#linearGradient3180"
       id="linearGradient3186"
       x1="16.104851"
       y1="27.512449"
       x2="111.39187"
       y2="32.209699"
       gradientUnits="userSpaceOnUse"
       gradientTransform="translate(158.85715,154.07646)" />
    <linearGradient
       inkscape:collect="always"
       xlink:href="#linearGradient3207"
       id="linearGradient3213"
       x1="174.89386"
       y1="200.77371"
       x2="249.22404"
       y2="241.19048"
       gradientUnits="userSpaceOnUse"
       gradientTransform="translate(-80,0)" />
    <linearGradient
       inkscape:collect="always"
       xlink:href="#linearGradient3180"
       id="linearGradient3225"
       x1="84.959869"
       y1="78.889908"
       x2="12.836839"
       y2="73.195984"
       gradientUnits="userSpaceOnUse"
       gradientTransform="translate(78.85715,154.07646)" />
    <linearGradient
       inkscape:collect="always"
       xlink:href="#linearGradient3207"
       id="linearGradient3232"
       gradientUnits="userSpaceOnUse"
       gradientTransform="translate(-80,0)"
       x1="174.89386"
       y1="200.77371"
       x2="249.22404"
       y2="241.19048" />
    <linearGradient
       inkscape:collect="always"
       xlink:href="#linearGradient3180"
       id="linearGradient3234"
       gradientUnits="userSpaceOnUse"
       gradientTransform="translate(78.85715,154.07646)"
       x1="84.959869"
       y1="78.889908"
       x2="12.836839"
       y2="73.195984" />
  </defs>
  <sodipodi:namedview
     id="base"
     pagecolor="#ffffff"
     bordercolor="#666666"
     borderopacity="1.0"
     gridtolerance="10000"
     guidetolerance="10"
     objecttolerance="10"
     inkscape:pageopacity="0.0"
     inkscape:pageshadow="2"
     inkscape:zoom="5.9609375"
     inkscape:cx="64"
     inkscape:cy="64"
     inkscape:document-units="px"
     inkscape:current-layer="layer1"
     showgrid="false"
     showguides="true"
     inkscape:guide-bbox="true"
     inkscape:window-width="1280"
     inkscape:window-height="968"
     inkscape:window-x="-4"
     inkscape:window-y="-4" />
  <metadata
     id="metadata7">
    <rdf:RDF>
      <cc:Work
         rdf:about="">
        <dc:format>image/svg+xml</dc:format>
        <dc:type
           rdf:resource="http://purl.org/dc/dcmitype/StillImage" />
      </cc:Work>
    </rdf:RDF>
  </metadata>
  <g
     inkscape:label="Layer 1"
     inkscape:groupmode="layer"
     id="layer1"
     transform="translate(-158.85715,-154.07646)">
    <g
       id="g3202">
      <path
         sodipodi:nodetypes="ccsccccc"
         id="path2396"
         d="M 194.25427,177.73046 C 227.47052,208.9336 227.47052,208.9336 227.47052,208.9336 L 230.15466,192.82875 C 236.80226,192.67437 262.49805,208.68014 252.13107,235.27174 L 272.93316,235.27174 C 279.31121,198.91441 252.59774,176.55929 233.34208,171.69114 L 235.01967,158.43819 L 194.25427,177.73046 z"
         style="fill:url(#linearGradient3176);fill-opacity:1;fill-rule:evenodd;stroke:#9f3e00;stroke-width:4;stroke-linecap:round;stroke-linejoin:round;stroke-opacity:1" />
      <path
         sodipodi:nodetypes="cccccccc"
         id="path3178"
         d="M 202.80997,176.80778 C 231.32897,163.3032 231.32897,163.3032 231.32897,163.3032 L 229.90302,173.70424 C 249.02201,177.27181 262.75984,188.70415 270.24902,209.26912 L 262.86763,208.9336 C 245.09337,178.21401 235.60496,184.18891 223.61206,179.07253 L 225.62517,171.0201 L 202.80997,176.80778 z"
         style="fill:url(#linearGradient3186);fill-opacity:1;fill-rule:evenodd;stroke:none;stroke-width:1px;stroke-linecap:butt;stroke-linejoin:miter;stroke-opacity:1" />
      <path
         sodipodi:nodetypes="cccccccsssssccccscccccccccccccccccccccccccccccccccc"
         id="path3190"
         d="M 227.0625,185.53125 C 226.23918,185.98706 225.82206,186.88435 225.64484,187.77151 C 225.31746,189.03508 225.27706,190.35093 225,191.625 C 224.79788,193.55667 224.47334,195.47374 224.28125,197.40625 C 224.01366,197.93849 223.25628,197.60318 223.03125,197.21875 C 221.96762,196.05461 220.90086,194.89184 219.75,193.8125 C 218.59699,192.67361 217.47515,191.50396 216.34375,190.34375 C 215.9451,190.23373 215.8894,190.82344 215.59375,190.96875 C 214.96693,191.73511 214.32131,192.4853 213.65625,193.21875 C 213.6159,193.64865 214.17959,193.70752 214.35283,194.03052 C 216.1502,195.73016 218.03899,197.3292 219.8423,199.02225 C 220.32526,199.52031 221.04326,199.65343 221.5193,200.17473 C 222.3166,200.81436 222.89067,201.69105 223.58866,202.45668 C 224.14512,203.02771 224.56539,203.8933 225.40625,204.0625 C 226.41029,206.08855 226.78478,204.2446 227,203.0625 C 227.23952,202.24928 227.30601,201.51609 227.25794,200.66112 C 227.26303,199.54867 227.39437,198.44173 227.71875,197.375 C 228.149,196.01553 228.36503,194.60244 228.676,193.21345 C 228.88888,192.34445 228.87737,191.14921 229.90625,190.8125 C 230.64331,190.6103 231.20501,191.26559 231.87089,191.45964 C 232.89164,191.93384 233.92424,192.38518 234.90625,192.9375 C 236.79167,193.91667 238.67708,194.89583 240.5625,195.875 C 241.74701,196.60966 242.87342,197.43078 244,198.25 C 245.20805,199.27996 246.40825,200.31913 247.59375,201.375 C 248.73525,202.57563 249.81106,203.83913 250.82627,205.14784 C 251.46655,206.00782 252.05461,206.90656 252.625,207.8125 C 253.31234,209.26569 253.88542,210.76862 254.47812,212.26187 C 254.99575,213.54194 255.41403,214.86443 255.6875,216.21875 C 255.90939,218.06712 256.1704,219.91452 256.21307,221.77839 C 256.29797,223.48829 256.48019,225.20715 256.27442,226.91543 C 256.17937,227.98083 256.07789,229.0482 255.84375,230.09375 C 255.69792,230.97917 255.55208,231.86458 255.40625,232.75 C 256.39622,232.6943 257.39271,232.74461 258.375,232.875 C 258.90614,232.90758 259.43561,232.98555 259.96875,232.96875 C 260.21875,230.21875 260.46875,227.46875 260.71875,224.71875 C 260.69608,223.62164 260.6247,222.52779 260.5,221.4375 C 260.39774,220.14091 260.16472,218.85909 260.0625,217.5625 C 259.84159,216.29853 259.60243,215.03804 259.34375,213.78125 C 258.99583,212.73753 258.73545,211.66139 258.28125,210.65625 C 257.80408,209.42517 257.32705,208.19403 256.78396,206.99011 C 256.29673,205.81126 255.65868,204.70428 255.09375,203.5625 C 254.54083,202.58928 253.88958,201.67382 253.19423,200.79811 C 252.35865,199.81332 251.52308,198.82854 250.6875,197.84375 C 249.92765,197.15559 249.23195,196.3932 248.40625,195.78125 C 247.23946,194.82914 245.9699,194.01624 244.74385,193.14439 C 243.85966,192.50217 242.97862,191.85546 242.04263,191.28854 C 241.14569,190.67604 240.19082,190.15917 239.18757,189.74329 C 237.37354,188.92593 235.56258,188.10179 233.75,187.28125 C 232.42314,186.81731 231.1353,186.24547 229.7866,185.84364 C 228.93016,185.54807 227.95139,185.19974 227.06265,185.5312 L 227.0625,185.53125 z"
         style="fill:#ffa82f;fill-opacity:1;fill-rule:evenodd;stroke:none;stroke-width:4.5999999;stroke-linecap:square;stroke-linejoin:round;stroke-miterlimit:4;stroke-dasharray:none;stroke-opacity:1" />
    </g>
    <g
       id="g3227"
       transform="translate(80,0)">
      <path
         style="fill:url(#linearGradient3232);fill-opacity:1;fill-rule:evenodd;stroke:#9f3e00;stroke-width:4;stroke-linecap:round;stroke-linejoin:round;stroke-opacity:1"
         d="M 167.22404,260.31499 C 134.00779,229.11185 134.00779,229.11185 134.00779,229.11185 L 131.32365,245.2167 C 124.67605,245.37108 98.98026,229.36531 109.34724,202.77371 L 88.54515,202.77371 C 82.1671,239.13104 108.88057,261.48616 128.13623,266.35431 L 126.45864,279.60726 L 167.22404,260.31499 z"
         id="path3168"
         sodipodi:nodetypes="ccsccccc" />
      <path
         sodipodi:nodetypes="ccccccc"
         id="path3215"
         d="M 90.76803,206.41722 C 86.48241,250.28353 118.71261,262.38437 131.05145,263.68983 L 129.39073,276.38254 L 158.33484,261.67323 L 134.8474,267.36716 L 135.79639,260.96149 C 98.1367,255.41193 96.85441,229.57497 90.76803,206.41722 z"
         style="fill:#ff9527;fill-opacity:1;fill-rule:evenodd;stroke:none;stroke-width:1px;stroke-linecap:round;stroke-linejoin:round;stroke-opacity:1" />
      <path
         sodipodi:nodetypes="cccccccccc"
         id="path3217"
         d="M 90.48224,205.68298 C 99.97212,209.71617 99.97212,209.71617 99.97212,209.71617 C 96.67402,245.05653 117.14523,250.68525 138.64335,255.03032 L 139.82959,245.77769 L 161.1818,260.487 L 163.31702,259.77526 L 135.55914,233.44085 L 132.94943,247.67567 C 106.17815,239.47721 103.94712,224.59019 105.4288,205.44573 L 90.48224,205.68298 z"
         style="fill:url(#linearGradient3234);fill-opacity:1;fill-rule:evenodd;stroke:none;stroke-width:1px;stroke-linecap:butt;stroke-linejoin:miter;stroke-opacity:1" />
    </g>
  </g>
</svg>
