<?xml version="1.0" encoding="UTF-8" standalone="no"?>
<svg
   xmlns:dc="http://purl.org/dc/elements/1.1/"
   xmlns:cc="http://creativecommons.org/ns#"
   xmlns:rdf="http://www.w3.org/1999/02/22-rdf-syntax-ns#"
   xmlns:svg="http://www.w3.org/2000/svg"
   xmlns="http://www.w3.org/2000/svg"
   xmlns:sodipodi="http://sodipodi.sourceforge.net/DTD/sodipodi-0.dtd"
   xmlns:inkscape="http://www.inkscape.org/namespaces/inkscape"
   class="map-regions"
   version="1.1"
   id="map-france"
   height="480"
   width="520"
   inkscape:version="0.91 r13725"
   sodipodi:docname="map-regions.svg">
  <sodipodi:namedview
     pagecolor="#ffffff"
     bordercolor="#666666"
     borderopacity="1"
     objecttolerance="10"
     gridtolerance="10"
     guidetolerance="10"
     inkscape:pageopacity="0"
     inkscape:pageshadow="2"
     inkscape:window-width="1920"
     inkscape:window-height="1132"
     id="namedview103"
     showgrid="false"
     inkscape:zoom="1.8153846"
     inkscape:cx="98.509605"
     inkscape:cy="246.48287"
     inkscape:window-x="-8"
     inkscape:window-y="-8"
     inkscape:window-maximized="1"
     inkscape:current-layer="map-france"
     inkscape:showpageshadow="false" />
  <metadata
     id="metadata122">
    <rdf:RDF>
      <cc:Work
         rdf:about="">
        <dc:format>image/svg+xml</dc:format>
        <dc:type
           rdf:resource="http://purl.org/dc/dcmitype/StillImage" />
        <dc:title></dc:title>
      </cc:Work>
    </rdf:RDF>
  </metadata>
  <defs
     id="defs120" />
  <defs
     id="defs7">
    <filter
       height="1.3"
       id="dropshadow">
      <feGaussianBlur
         id="feGaussianBlur10"
         stdDeviation="5"
         in="SourceAlpha" />
      <feOffset
         id="feOffset12"
         result="offsetblur"
         dy="1"
         dx="0" />
      <feComponentTransfer
         id="feComponentTransfer14">
        <feFuncA
           id="feFuncA16"
           slope="0.2"
           type="linear" />
      </feComponentTransfer>
      <feMerge
         id="feMerge18">
        <feMergeNode
           id="feMergeNode20" />
        <feMergeNode
           id="feMergeNode22"
           in="SourceGraphic" />
      </feMerge>
    </filter>
  </defs>
  <g
     class="region corse"
     id="corse"
     transform="matrix(0.80489351,0,0,0.80489351,52.622412,-81.697627)">
    <path
       d="m 463.45898,356.59766 -2.29101,1.53515 0.31641,1.50977 1.21874,1.53515 -1.36328,1.04688 0.60743,1.2168 -0.92579,1.07226 0,1.36524 1.53516,1.38671 0,2.11915 -0.92578,1.97265 -1.04688,0.46289 -1.21875,-1.67969 -2.14257,0.16993 -0.46289,-0.31641 -1.82618,0 -1.65625,1.53516 -0.63281,2.58203 -3.94726,0.7539 -3.04493,2.58204 -0.60742,1.68164 -1.51172,-0.14649 -0.77929,-0.92578 -0.4375,2.60547 -1.07227,0.43945 -0.31641,2.43555 0.46289,1.07227 -1.67968,1.21679 -0.46289,1.21875 -1.21875,0 0,1.67969 1.53515,1.07227 2.58203,1.50976 0.16993,1.21875 -1.53516,0.46094 -2.43555,0.46289 0,1.04883 0.90235,0.92578 0.16992,3.04297 3.33594,1.07226 1.21875,0.29297 1.07226,1.67969 -0.75586,1.07226 -1.21679,0.4375 -0.92579,1.68164 -0.90234,1.07227 0.43945,2.72656 2.28907,-0.14648 0.60937,0.46289 2.14258,-1.07031 0.60937,0.60742 -1.07226,2.29101 1.07226,1.07032 -1.82617,1.36523 -1.21875,2.72852 3.33789,0.77929 4.72461,0.4375 -1.97265,2.28907 c 0,0 -0.92721,-0.35703 -1.33985,-0.16993 -0.0122,0.006 -0.0376,0.0183 -0.0488,0.0254 -0.003,0.002 -0.022,0.0207 -0.0254,0.0234 -0.003,0.003 -0.0203,0.0205 -0.0234,0.0234 -0.003,0.003 -0.0227,0.022 -0.0254,0.0254 -0.005,0.007 -0.0188,0.0158 -0.0234,0.0234 -0.002,0.004 0.002,0.0213 0,0.0254 -0.004,0.008 -0.0222,0.0398 -0.0254,0.0488 -0.002,0.005 0.002,0.0186 0,0.0234 -0.002,0.01 -0.022,0.0383 -0.0234,0.0488 -8e-4,0.0109 3.7e-4,0.0373 0,0.0488 10e-6,0.76115 -1.04687,2.60742 -1.04687,2.60742 l 1.50976,1.65625 2.75195,1.67969 5.16407,1.36328 1.50976,0.60938 1.38867,0.60937 -0.92578,1.67969 2.43555,-0.14453 0.46289,1.07031 2.43555,0 0.60937,-2.89844 -1.53515,-0.3164 2.14453,-2.26563 -0.75586,-0.7793 0.14648,-1.36328 2.75195,-1.50976 0.14649,-1.68164 -1.82617,-0.14453 -1.21875,1.04687 0,-1.50976 2.43554,-0.14649 0.75586,-1.82812 0.60938,-5.33399 -0.46289,-2.28906 -0.0488,-2.19141 -0.0977,-4.50586 3.65235,-5.16406 0,-8.52539 -1.50977,-2.89844 -0.46289,-9.13476 -1.07031,-1.67969 -1.97461,-1.50977 -0.31641,-5.65039 0.92578,-2.58203 -1.21679,-4.11719 -0.75586,-3.33593 -0.63281,-0.92578 -1.36329,-0.75586 z m -22.50781,30.76367 0.002,0 0.29102,0.82812 -0.29297,-0.82812 z"
       transform="matrix(1.2424004,0,0,1.2424004,-13.663322,101.16549)"
       class="land"
       id="path8"
       inkscape:connector-curvature="0" />
    <text
       class="region-name"
       id="text4270-3-1-7-9-7-6-4-4-4"
       y="599.52094"
       x="517.91418"
       xml:space="preserve"><tspan
         id="tspan4450-5-1"
         y="599.52094"
         x="517.91418">Corse</tspan></text>
  </g>
  <g
     class="region paca"
     id="paca"
     transform="matrix(0.80489351,0,0,0.80489351,10.997519,-121.42744)">
    <path
       d="m 538.24138,480.40497 -1.69374,0.75466 -0.39553,2.84636 -3.38748,0.3931 -0.5751,-2.66437 -1.12108,-1.11864 -3.41902,0.36398 -1.33219,1.14777 -0.75466,3.965 0.5751,0.93908 3.96258,0.39311 0.75709,2.45082 1.51417,0.75709 0,4.14457 -3.60102,-0.18199 -1.51418,1.69617 -4.32656,-0.75709 -2.45083,2.08684 -1.72529,-0.75465 -2.45082,1.90484 0.93665,1.69618 -1.51174,1.51174 -4.7221,0 0,2.27127 1.51417,0.75466 -0.57509,1.33217 -3.20792,1.30065 -3.965,0.39311 -1.15018,3.60101 -0.17958,2.27127 2.08685,1.69373 -2.08685,2.45084 -2.63282,-1.33219 -3.02592,-0.17956 -0.39553,1.69374 1.90727,1.33218 -2.30038,1.51174 0.78864,3.20792 6.41341,1.7253 1.15019,2.45082 1.87573,0.36398 -0.63333,5.9014 -0.12138,1.11865 -1.12107,-1.33218 -1.51175,-1.32976 -0.96821,2.84394 -1.69616,1.51174 -0.72555,-0.0606 -1.72528,-0.12126 -2.84393,-2.08685 -0.75709,-2.45083 -5.29475,-0.39309 -3.96501,-0.36399 -0.39311,-2.26883 1.33219,-2.84393 -2.45084,2.08683 -3.78301,-0.39309 -0.75708,-1.33219 2.63282,-3.56948 -2.63282,-2.48237 -2.66194,0.21111 -2.05773,3.20792 0.54355,3.38991 3.20792,0.3931 -0.54597,1.51417 -2.47996,0.17957 -2.81481,2.84636 -0.75709,-0.93908 0.54599,-3.78301 -1.12108,-1.32975 -5.11277,0.75465 -0.99975,2.02861 0.54598,0.30332 3.20791,5.32388 0,4.29744 5.62721,5.59808 0,2.42171 -2.17906,1.23998 -5.29475,3.02592 -1.36131,10.16973 -5.59808,-0.78864 -1.60396,4.26833 1.32976,1.87574 -6.14164,3.75146 -1.69616,3.93346 5.99362,0.27421 7.95669,0.57509 1.51417,1.51174 -2.84393,0 -1.87573,3.20793 8.10958,1.69374 6.44495,-1.11865 -3.41902,-3.23703 2.26883,-1.87817 3.60101,1.51418 1.69618,3.60102 10.80305,0.18199 2.81239,-1.15019 0.57509,1.72528 -3.02591,2.63282 4.17611,0.182 -0.75709,1.90485 -1.14777,1.33218 9.25977,0 4.53767,1.51175 0.45378,0.60664 0.51443,0.69643 3.3899,1.51175 0.93908,3.78301 2.08685,0.39311 1.90728,-1.33219 3.38748,-2.08685 5.87228,0.5751 -0.18199,1.51175 -1.90728,0.93908 4.5401,0.21111 -1.12108,-1.15019 -0.39309,-2.45083 2.45082,-1.69374 2.84636,0.93908 1.15019,0.36156 0.93666,1.15019 1.33218,-0.93666 0.36398,-2.48236 1.51175,-1.30065 3.965,0 1.1502,-1.72528 2.63282,0.75708 3.02592,-1.30305 0,-4.93079 -3.965,0.17957 3.02592,-1.87574 1.51417,-2.08684 0.39311,-3.02592 5.47675,-0.75709 3.05505,-3.41903 0.15287,-0.182 0.182,-4.32656 3.78058,0.75466 1.33218,-1.72286 1.90728,0.39311 0.18199,-5.87228 4.35568,-0.36156 3.78301,-3.41903 3.38992,0 0.18198,-2.08927 3.41904,-2.05772 -1.90728,-4.35811 2.84636,-2.45083 -0.5751,-2.84393 4.17612,-1.33219 1.11865,-4.14456 -0.54355,-2.84636 -0.96821,-1.69374 -0.75709,-2.48238 -2.81481,0.21354 -8.89578,3.20792 -2.84635,0 -4.90167,-3.96501 -4.9332,-1.33218 -2.84393,0 0,-3.41903 -3.96501,-2.45083 0,-0.12138 0,-3.66169 2.66437,-0.36397 -1.51418,-1.32977 -1.90485,-0.57509 -0.93908,-2.45082 0.7571,-1.69618 3.3899,-3.60102 -0.54598,-2.66193 0.48531,-0.51444 1.78353,-1.93639 2.05772,0.18198 0,-1.69616 -2.63282,-1.32975 -0.57267,-5.47919 -2.08927,-0.75466 -2.63282,0.39311 -4.9332,-2.48238 -0.75466,-5.65875 -2.81482,-0.93908 -0.9682,-1.90485 -1.2424,-2.72503 z"
       id="path51"
       class="land"
       inkscape:connector-curvature="0"
       sodipodi:nodetypes="cccccccccccccccccccccccccccccccccccccccccccccccccccccccccccccccccccccccccccccccccccccccccccccccccccccccccccccccccccccccccccccccccccccccccccccccccccccccccccccccccccccccccccccccccccccccccc" />
    <text
       class="region-name"
       id="text4270-3-1-7-9-7-6-4-4-6"
       y="557.98279"
       x="632.42651"
       xml:space="preserve"
       style="text-align:center;text-anchor:middle"><tspan
         id="tspan4450-5-8"
         y="557.98279"
         x="549.56897"
         style="text-align:center;text-anchor:middle">Provence-Alpes-</tspan><tspan
         y="573.44037"
         x="547.42206"
         style="text-align:center;text-anchor:middle"
         id="tspan4308">Côte d'Azur</tspan></text>
    <text
       class="region-name"
       y="581.18732"
       x="552.37268"
       xml:space="preserve"
       style="text-align:center;text-anchor:middle"
       id="text4305" />
  </g>
  <g
     class="region midi-pyrenees-languedoc"
     id="midi-pyrenees-languedoc"
     transform="matrix(0.80489351,0,0,0.80489351,52.622412,-81.697627)">
    <path
       d="m 246.8125,271.87305 -3.23828,1.51172 -0.46289,0.0723 0.0957,0.14649 -1.04687,0.90039 0,1.68164 1.36523,1.50976 -1.36523,2.43555 -1.2168,0.7793 -0.17188,1.50976 -2.58203,0.31641 0.14649,1.65625 0.92578,0.31836 -2.14258,3.04297 -3.33789,0.29297 -0.14648,2.28906 -1.38672,1.36523 -0.75586,1.9961 -3.04492,0.14648 1.21875,4.55469 1.29101,2.82617 0.24219,0.53516 -3.36133,0.60937 -2.28906,-1.36523 -1.07227,3.48437 1.68164,1.82617 -0.75586,2.89844 -0.92578,1.07227 0.63477,1.82617 -2.89844,0.60937 -2.29101,0.60938 0.60937,2.11914 -1.14453,0.33984 -0.36524,0.12305 -0.77929,0.75391 -2.28907,-2.26563 -4.55468,0.43945 -1.21875,2.14258 -2.75196,0.29297 -2.58203,0.46289 -1.07226,-1.50976 -2.43555,2.43554 -1.80273,-1.53515 -1.07032,2.28906 0.14649,1.97265 -1.68164,0.4629 -0.75586,-1.07032 -0.75391,-2.29101 -2.14453,1.82812 -1.50977,-0.60937 -1.67968,0.3164 -1.50977,1.82618 1.80078,3.04492 -1.21679,1.21875 0.46289,2.58203 -1.50977,1.97266 -1.07226,2.89843 1.21679,2.14258 3.84961,0.26758 0.26758,0.0254 2.58203,4.26172 -1.68164,1.53515 1.21875,1.82618 1.82617,2.72851 -1.50976,1.97266 -2.43555,5.48047 -4.11719,3.50781 1.07227,2.14258 -0.92578,0.60937 -2.26368,-0.46289 -0.63476,5.01758 -1.2168,0.92578 -0.24414,3.14258 0.39063,-0.2207 2.58007,1.53515 3.04493,2.28907 0.29297,1.82812 2.43554,1.97266 1.99805,0 5.01758,-2.14454 2.11914,2.43555 2.89844,0.7793 1.07031,-1.82617 1.36523,0.60937 2.94727,0.19531 6.18554,0.41407 0.31641,-7.47852 2.11914,0.31641 3.14258,1.82812 0.82813,0.46289 4.70117,0.90039 1.99609,0 2.58203,3.36133 6.55274,-0.3164 2.58203,4.11523 2.28906,-0.92578 6.69922,0.92578 0.48633,2.80078 0.26757,1.60938 2.28907,2.14257 4.55469,1.2168 0.14648,2.72852 2.43555,2.14453 1.82812,-0.31641 2.60547,-3.1914 3.19141,-0.60938 5.01757,1.68164 4.26172,3.65235 1.21875,-1.53321 1.07032,0 1.07226,0.75391 0.90039,-0.4375 0.14649,-2.14453 4.58007,-1.07032 1.50977,-1.97461 2.28906,-0.7539 3.19141,0 1.99609,2.11914 2.43555,0.16992 0,-2.43555 -1.2168,-1.68164 -2.14258,-0.92382 -0.34179,-13.29883 -0.1211,-4.36133 0.16993,-5.01758 -1.82618,0.14649 -1.53515,-2.26563 1.21679,-1.99609 2.58204,2.43554 2.29101,-1.82617 1.5332,-1.51172 0.19532,-1.60742 0.0977,-0.82812 5.48047,-1.67969 0.60938,-1.36524 4.26172,-0.14453 1.36328,-1.68164 8.23242,-6.55078 5.16406,-3.6543 2.0957,0.14649 2.33789,0.16992 0,3.04492 3.48243,-0.16992 1.875,0.0957 1.36523,-3.16601 4.94336,-3.01953 -1.07031,-1.50977 1.29101,-3.43555 4.50586,0.63477 1.09571,-8.18555 6.01562,-3.43359 0,-1.94922 -4.5293,-4.50586 0,-3.45898 -2.58203,-4.28516 -5.38281,-3.02148 -0.41406,2.36328 -2.16797,0.21875 -0.63281,-2.36328 -2.16797,0.41406 -0.41406,3.02148 -1.73047,-0.63281 -3.65235,-2.38867 -1.73047,0.87695 0,-4.31055 -2.48437,-1.48632 -0.75391,-0.46289 0.4375,-3.21485 -2.58203,-2.80078 -1.07226,-5.60156 -3.8711,-4.94531 -2.82617,0.68359 -0.60937,-2.11914 -1.53321,0 -0.29297,1.82617 -3.94531,1.2168 -2.75391,-7.01367 -4.26171,1.5332 -1.2168,2.72852 -2.72852,-1.82618 -2.14453,6.69727 -2.18945,5.03906 -1.3418,-1.65234 -0.4375,-4.3125 -1.48633,0 -0.6582,-4.31055 -3.01953,0.43945 -0.41406,-2.80273 -0.43946,-0.65625 -4.31054,3.67773 0,3.65235 -1.07227,0 -0.4375,3.43554 -1.07226,0.4375 -0.85157,1.92383 -4.75,0 -0.41406,-0.63281 -2.16797,0 -1.29101,2.14453 -0.46289,-0.0488 -1.24219,-0.17187 0.85351,-2.58008 -1.94921,-0.85352 1.94921,-4.52929 -2.58203,-1.92578 -0.87695,-5.60157 -2.36328,-0.63281 -1.72852,1.70508 -0.85351,-1.50977 -2.58203,2.58008 -1.72852,0.2207 -2.99609,-4.2871 z m -46.98438,71.70703 0.9961,0.6582 c 2e-5,6.7e-4 -2e-5,0.001 0,0.002 z"
       transform="matrix(1.2424004,0,0,1.2424004,-13.663322,101.16549)"
       class="land"
       id="path32"
       inkscape:connector-curvature="0" />
    <text
       class="region-name"
       id="text4270-3-1-7-9-7-6-4-4-9"
       y="516.97388"
       x="235.21242"
       xml:space="preserve"><tspan
         id="tspan4450-5-5"
         y="516.97388"
         x="235.21242">Languedoc-Roussillon</tspan><tspan
         id="tspan4509"
         y="531.97388"
         x="235.21242">et Midi-Pyrénées</tspan></text>
  </g>
  <g
     class="region bretagne"
     id="bretagne"
     transform="matrix(0.80489351,0,0,0.80489351,52.622412,-81.697627)">
    <path
       d="m 108.32031,97.210938 -1.38867,1.072265 -3.48437,0.4375 -0.7793,1.072266 -2.43555,-1.828125 -3.189451,2.144536 1.216797,1.65624 -2.119141,2.89844 -0.09766,-0.0488 -2.507813,-1.46093 -4.263672,0.14453 0,3.04492 -1.216796,0 -0.292969,-1.36328 -1.826172,0.29297 -0.316406,-3.50782 -1.65625,1.82618 -1.828125,-0.75391 -3.359375,0.31641 -0.609375,1.50976 -1.972657,0.46289 -0.316406,-1.68164 -3.484375,0.46289 0,1.07227 -2.435547,0.14648 -1.072265,-0.75586 -1.216797,0.60938 -0.316407,1.82617 -4.091796,0.14648 -2.144532,2.58204 1.828125,1.36328 -2.4375,1.99804 0.75586,1.36329 -0.609375,3.33789 2.435547,0.3164 0.925781,-0.92578 0.46289,0.60938 5.773438,-0.75586 3.798828,-2.72852 -3.335937,3.19141 0.291015,1.50976 3.044922,-1.36328 -0.609375,2.14258 3.361328,0.14648 -0.144531,0.90235 -3.654297,-0.14649 -2.898437,-0.75586 -3.507813,-1.67968 -2.119141,2.43554 2.728516,0.92579 -0.146484,4.09179 0.755859,-0.60937 1.679688,-2.58203 3.191406,1.82617 1.533203,0.31836 0.609375,2.43554 -0.925781,1.65625 -1.972656,-0.14648 -1.826172,0 -3.044922,0.46289 -5.1875,0.29102 -1.046875,1.38867 1.509765,0.90234 1.679688,-0.14648 1.365234,1.21679 1.972656,-0.14453 3.214844,3.65235 0.753906,3.94531 -1.070312,2.14453 3.189453,0.60938 3.507813,-0.17188 0.755859,-1.36328 -1.365234,-1.82617 1.365234,0.60742 1.388672,-0.14453 2.435547,1.36328 1.509765,-0.29297 0,-2.60547 0.609375,2.60547 1.972657,3.19141 4.261718,0.29296 0.169922,-0.90234 1.048828,1.50977 2.605469,0.46289 1.972656,0 0.123047,0.17187 1.705078,2.72657 2.435547,0.60937 0.900398,-1.36328 -0.4375,1.65625 2.11718,0.92578 2.75391,2.72656 0.90039,1.68164 -0.29297,1.97266 -0.3164,1.99805 1.82812,1.36328 0.92578,-1.07227 -0.92578,-1.2168 0,-2.72851 1.82617,0.4375 0.60938,-1.82617 0.46289,1.07226 1.97265,1.67969 0.92579,-1.5332 -0.92579,-2.11914 1.67969,2.28906 2.11914,-0.31641 -0.4375,-1.07226 1.97266,0.46289 1.50977,1.82617 -0.75586,1.21875 -1.97266,-0.60937 -2.28906,-1.07227 -1.2168,1.53516 1.82617,0.60937 1.36328,2.11914 8.23243,-0.75586 2.11914,0.46289 -1.04688,0.90235 0.14648,1.38672 0.29297,0.2207 0.65625,-0.12305 1.36524,-1.36328 0.90039,1.04687 2.43555,0 2.89843,-1.50976 4.26172,-1.67969 0.14649,-4.26367 0.90234,-0.48633 3.06836,-1.63281 9.42578,-0.46289 0.60938,-1.67969 1.53515,-1.50976 3.33594,-0.4629 0.14648,-1.68164 2.28907,0.31641 1.36523,1.82813 3.06836,0.7539 0.58398,-1.2168 0.7793,-2.7539 1.97266,-4.8711 1.07226,-0.60742 2.58203,0.31641 0,-4.11719 -1.07226,-1.07226 0,-4.40821 -0.46289,-1.50976 0,-2.43555 1.53515,-1.53516 0,-3.04492 -0.75586,-0.60742 0.14649,-4.26367 -1.2168,-0.60938 -1.82812,0 -1.53321,-1.21679 -1.65625,1.97265 -1.36523,0.16993 -1.2168,1.65624 -1.21875,-0.29101 -2.60547,-2.29102 -0.90234,-2.89843 -0.46094,-1.92383 -7.47851,0 -2.75196,-1.67969 1.82618,-2.43555 -3.65235,-0.14648 -1.46289,1.65625 -0.97461,1.0957 -2.89844,-0.3164 -0.29101,1.67968 -1.82813,0.14649 -0.14453,-2.11914 -1.53515,-0.46289 -1.07227,1.21875 0,-3.04493 -1.82617,1.36329 -2.72852,-0.46094 -0.92578,1.82617 -5.625,3.04492 0,1.53321 -1.21875,0 0,-2.75196 -3.1914,-1.50976 0.29297,-2.75196 -2.87305,-2.11914 0,-2.58203 -2.14453,-0.46289 0.14648,-2.435546 -1.65625,-0.146484 0.14649,-1.679688 -3.04493,0 -0.46289,1.509766 -0.90039,-2.11914 z"
       transform="matrix(1.2424004,0,0,1.2424004,-13.663322,101.16549)"
       class="land"
       id="path38"
       inkscape:connector-curvature="0" />
    <text
       class="region-name"
       id="text4270"
       y="266.89368"
       x="90.374176"
       xml:space="preserve"><tspan
         id="tspan4278"
         y="266.89368"
         x="90.374176">Bretagne</tspan></text>
  </g>
  <g
     class="region nord-picardie"
     id="nord-picardie"
     transform="matrix(0.80489351,0,0,0.80489351,52.622412,-81.697627)">
    <path
       d="m 276.67383,4.3378906 -4.8711,2.2890625 -7.59961,1.21875 -0.41406,0.072266 -8.42773,1.6074218 -6.69727,5.1640621 0,20.556641 -0.0488,0.609375 -0.41406,5.017578 3.36133,3.044922 0,1.533203 -4.11719,-2.435547 -4.94336,6.089844 1.31446,0.560547 1.68164,-0.146485 0.7539,1.509766 6.69922,6.552734 0.46289,2.728516 1.50977,2.751953 -0.51172,0.632812 -0.99805,1.19336 -0.60937,1.509766 1.21679,0 -0.60742,1.535156 -0.60937,3.044922 0.90039,1.509765 0,2.605469 1.53515,0 -0.60937,1.048828 -1.07031,1.996094 -0.43946,1.365234 1.36329,1.216797 0.43945,3.507813 0.77929,1.216796 -1.07226,0.292969 -1.36328,-0.755859 -0.24414,1.802734 0.0977,-0.121094 0.58399,1.363282 0.92578,1.511718 4.11719,0.316407 2.89843,-0.316407 1.97266,-1.511718 2.43555,1.511718 1.21875,0.923829 L 269.09961,90 l 1.65625,-0.753906 3.21484,1.679687 3.33594,1.972657 1.07227,1.072265 1.82812,-1.216797 1.50977,0.900391 0.92578,0.755859 1.36328,-0.146484 0.92578,-1.21875 2.11914,1.21875 2.60547,-1.072266 1.50977,0.462891 1.51171,-1.216797 0.92383,-0.462891 0.29297,0.21875 1.38867,0.998047 0.46289,3.361328 4.0918,3.945316 1.36328,0.46289 0.7793,1.82812 2.55859,0.53516 0.31641,-0.39063 0.7793,-1.65625 2.28906,-1.07031 1.21875,-3.191405 1.36328,-0.925781 -0.7793,-1.072266 -1.97265,0 -0.29297,-1.046875 1.36523,-0.609375 0.60742,-0.923828 -1.36328,-0.902344 0.43946,-1.388672 3.50585,-0.291015 -0.60742,-1.365235 -2.11914,-1.388672 0,-4.091796 2.87305,-2.142578 3.21484,0 -0.3164,-1.509766 1.82617,-0.779297 2.58203,1.679687 1.07227,-0.291015 -0.14649,-5.189453 0.46289,-1.826172 0.60938,-2.119141 -1.99805,-1.072265 0.46289,-1.216797 2.89844,-0.609375 0,-1.972656 2.29101,-1.21875 0.60743,-1.826172 -0.75391,-1.21875 0.14648,-2.289063 1.36329,-1.216797 -1.36329,-2.582031 0.41407,-2.703125 -3.09375,0 -0.24414,0 -0.14649,-1.511719 3.04492,-1.826172 -0.46289,-2.898437 -2.89843,-0.75586 0.75585,-0.779296 0,-2.119141 2.28907,-1.679687 -0.60938,-1.21875 -4.87109,-3.798829 -8.52539,0.462891 -0.90039,1.509766 -1.07227,0 0.14649,-5.333985 -2.43555,-2.875 -1.82617,0.292969 -1.07227,-1.216797 -3.04492,1.363281 -1.04688,-1.046875 -2.14453,-0.316406 -0.60742,-1.974609 -0.14648,-6.087891 -1.36524,-0.609375 -0.16992,-0.925781 -0.90039,0 -0.31641,-1.826172 -1.97461,0.169922 -3.79882,1.21875 -1.82618,2.263672 -1.82812,0 -1.2168,-1.509766 -0.46289,-1.679687 -1.50976,-1.681641 -2.14453,0 -0.9004,-1.65625 0,-2.605469 1.04688,-1.65625 -0.60938,-2.2890622 z"
       transform="matrix(1.2424004,0,0,1.2424004,-13.663322,101.16549)"
       class="land"
       id="path43"
       inkscape:connector-curvature="0" />
    <text
       class="region-name"
       id="text4270-3-1"
       y="147.79448"
       x="402.03329"
       xml:space="preserve"><tspan
         id="tspan4278-2-4"
         y="147.79448"
         x="344.6319"
         style="text-align:center;text-anchor:middle">Nord-Pas-de-Calais</tspan><tspan
         y="147.79448"
         x="344.6319"
         style="text-align:center;text-anchor:middle"
         id="tspan4307" /><tspan
         y="162.36806"
         x="342.20297"
         style="text-align:center;text-anchor:middle"
         id="tspan4305">et Picardie</tspan></text>
  </g>
  <g
     class="region auv-rhone"
     id="auv-rhone"
     transform="matrix(0.80489351,0,0,0.80489351,52.622412,-81.697627)">
    <path
       d="m 289.02344,194.44336 -2.11914,2.72852 -1.21875,0.14648 -1.36328,1.38672 -1.53516,-1.67969 -4.0918,4.11523 0,2.43555 0.75586,0.60938 0.14649,1.21875 -2.11914,1.65625 -1.99805,-0.60938 -3.79883,0.7793 -1.97266,2.26562 -0.73046,1.5586 0.12109,-0.0234 1.82617,2.58008 0,1.82812 1.04688,1.36328 1.07226,-1.36328 1.21875,2.14258 1.67969,0.60938 1.68164,3.94531 0.0723,1.14453 0.21875,3.58203 1.21875,1.50977 0.60937,2.89843 -1.82812,1.36329 -0.4375,2.14453 -1.68164,0.90039 -2.89844,1.67969 0.29297,1.36523 3.50781,3.50781 0.3164,2.14258 -1.38867,2.26562 0,2.14258 0.92578,1.07227 0.46289,2.58203 -0.29296,1.04688 -0.46289,1.68164 0.75585,1.82617 -0.92578,1.07226 -1.50976,0 -1.53516,-1.68164 -1.36328,-0.75586 -0.14648,4.26367 -2.75196,1.67969 -1.97265,2.72852 0.46289,2.75195 -0.60938,1.21875 -0.77929,2.43555 -1.21875,0 -1.2168,1.50976 0.92578,0.92578 0.60742,1.50977 -1.97265,1.38867 0.80468,5.08985 2.58203,1.92578 -1.94921,4.52929 1.94921,0.85352 -0.85351,2.58008 1.70508,0.2207 1.29101,-2.14453 2.16797,0 0.41406,0.63281 4.75,0 0.85157,-1.92383 1.07226,-0.4375 0.4375,-3.43554 1.07227,0 0,-3.65235 4.31054,-3.67773 0.43946,0.65625 0.41406,2.80273 3.01953,-0.43945 0.6582,4.31055 1.48633,0 0.4375,4.3125 1.33985,1.65625 2.1914,-5.04297 2.14453,-6.69727 2.72852,1.82618 1.2168,-2.72852 3.89648,-1.41211 0.36523,-0.12109 2.75391,7.01367 3.94531,-1.2168 0.29297,-1.82617 1.53321,0 0.60937,2.11719 2.82617,-0.68164 3.50586,4.48242 0.36524,0.46289 1.07226,5.60156 2.58203,2.80078 -0.4375,3.21485 3.23828,1.94921 0,4.31055 1.73047,-0.87695 3.65235,2.38867 1.73047,0.63281 0.41406,-3.02148 2.16797,-0.41406 0.63281,2.36328 2.16797,-0.21875 0.41406,-2.36328 4.94336,2.77734 0.80469,-1.63281 2.09375,-0.31641 2.02148,-0.29101 0.90235,1.07031 -0.43946,3.04492 0.60938,0.75586 2.26562,-2.29102 1.9961,-0.14453 0.43945,-1.21875 -2.58203,-0.3164 -0.4375,-2.72852 1.65625,-2.58203 2.14258,-0.16992 2.11914,1.99804 -2.11914,2.87305 0.60937,1.07227 3.04492,0.3164 1.97266,-1.67968 -1.07227,2.28906 0.31641,1.82617 3.19141,0.29297 4.26171,0.3164 0.60938,1.97266 2.28906,1.67969 1.97266,0.14648 1.36523,-1.21679 0.7793,-2.28907 1.2168,1.07032 0.90234,1.07226 0.60742,-5.65039 -1.50976,-0.29297 -0.92578,-1.97265 -5.16211,-1.38868 -0.63477,-2.58203 1.85156,-1.21679 -1.53515,-1.07227 0.31836,-1.36328 2.43554,0.14453 2.11914,1.07227 1.67969,-1.97266 -1.67969,-1.36328 0.14454,-1.82813 0.92578,-2.89843 3.1914,-0.31641 2.58203,-1.04688 0.26758,-0.60937 0.19531,-0.46289 -1.21875,-0.60742 0,-1.82813 3.80079,0 1.21679,-1.21679 -0.7539,-1.36524 1.97265,-1.5332 1.38867,0.60742 1.97266,-1.67969 3.48242,0.60938 1.21875,-1.36524 2.89844,0.14649 0,-3.33594 -1.21875,-0.60938 -0.60937,-1.97265 -3.18946,-0.31641 -0.46289,-0.75586 0.60742,-3.1914 1.07227,-0.92383 2.75195,-0.29297 0.90235,0.90039 0.46289,2.14453 2.72656,-0.3164 0.31836,-2.29102 1.36328,-0.60742 2.92187,0.14453 -0.0488,-0.0957 4.55664,-1.82813 1.67968,1.07227 1.67969,0 0.14649,-1.82617 1.97265,-1.07227 0.75586,-0.90234 3.97071,-1.53321 0.46289,-2.58203 -0.7793,-1.21875 2.14258,-3.65234 -1.97266,-0.75586 -0.60937,-2.14258 -4.11524,-2.43555 c 0,0 0.24519,-4.66779 -0.14648,-5.50586 -0.0123,-0.021 -0.0388,-0.0595 -0.0488,-0.0723 -0.004,-0.004 -0.0214,-0.0218 -0.0254,-0.0254 -0.002,1.7e-4 -0.0212,-6e-5 -0.0234,0 -4e-5,-0.006 -1.4e-4,-0.022 0,-0.0234 -0.002,9e-5 -0.0231,-3e-5 -0.0254,0 -0.002,-1.2e-4 -0.0211,-6e-5 -0.0234,0 -0.002,-6e-5 -0.0231,1e-5 -0.0254,0 -0.60892,0.15223 -2.87304,0.31641 -2.87304,0.31641 l -2.28907,-2.60547 0.0723,-2.50977 0.0742,-2.65429 5.1875,-2.14454 0.60937,-1.50976 -0.31836,-3.36133 -3.33593,-3.48242 -1.07227,0.60937 0,-1.38867 0,-2.26562 -2.89844,-1.38868 -0.14648,-1.21679 1.68164,-1.82617 0,-2.11915 -2.75195,-2.89843 -0.14649,-1.97461 -5.1875,0 -3.48437,0.60937 -3.36133,2.72852 -0.90039,-1.36328 -1.68164,0.14453 -1.53321,3.36133 0.16993,1.36523 1.65624,1.36328 -3.04492,1.99805 -1.97265,1.82617 -3.36133,0 -1.65625,0 0,-2.89844 1.82617,-1.07226 2.72852,-0.29102 0.16992,-1.53515 -0.92383,-0.60938 2.28906,-2.89844 -0.3164,-0.90039 -2.60743,-1.38867 -6.33203,6.9668 -4.4082,0 0,-1.82813 -2.43555,-1.21679 -2.89843,3.18945 -2.29102,0.31641 0,-2.14258 -1.97266,-0.90039 -3.04492,-4.26368 -2.75195,-1.07031 -0.90039,-1.97461 -1.53516,-0.3164 -1.50976,1.07226 -1.21875,0.31641 -1.67969,-1.38867 -1.68164,0.17187 -1.07031,1.97266 -2.875,11.25195 -0.41407,0.92578 -0.51172,1.21875 -1.07031,-0.14648 -0.58594,-3.04492 -0.77929,-2.43555 -1.65625,0.14648 -1.38867,1.36328 -0.90039,-1.21679 -1.36329,1.21679 -1.85156,-1.21679 -1.50976,0 -0.60938,0.46094 -0.31641,1.7539 -0.58593,3.11914 -1.67969,0 -1.21875,1.2168 -0.92383,-0.92578 -4.87305,-0.75391 -1.82617,1.07031 -1.21679,0 -0.29297,-1.07031 -2.28907,-0.46289 -0.14648,-2.43555 -0.46289,-0.14648 -2.75195,0.46289 2.5332,-0.43945 0.0723,-0.16992 3.1914,-2.43555 0.14649,-5.94336 -1.07227,-1.50977 -2.43555,0 -0.90234,-1.21875 -2.58008,0 -0.75586,-0.92578 0,-2.28906 -3.06836,-5.77148 -1.51172,-1.07227 -2.89843,3.9707 -1.2168,0.29102 -0.46289,-1.97266 -1.36328,-0.60937 -0.60938,1.21875 -2.26562,0 -0.31641,-1.36328 -1.53516,0.90039 -1.65624,0.92578 -1.82618,-1.99805 -2.60547,-1.2168 -0.14648,-1.97265 z"
       transform="matrix(1.2424004,0,0,1.2424004,-13.663322,101.16549)"
       class="land"
       id="path21"
       inkscape:connector-curvature="0" />
    <text
       class="region-name"
       id="text4270-3-1-7-9-7-6-4-4"
       y="416.83127"
       x="350.13498"
       xml:space="preserve"><tspan
         id="tspan4450-5"
         y="416.83127"
         x="350.13498">Auvergne et Rhône-Alpes</tspan></text>
  </g>
  <g
     class="region aqui-poitou-limou"
     id="aqui-poitou-limou"
     transform="matrix(0.80489351,0,0,0.80489351,52.622412,-81.697627)">
    <path
       d="m 201.04688,177.07617 -2.89844,3.04492 -0.73242,1.26758 -0.31641,0.5586 -1.07031,-0.90039 -0.46289,-1.07227 -4.11719,0.14648 -3.79883,0.75586 -4.11719,0.31641 0,2.11914 -2.11914,1.38867 -4.72461,-1.07226 -3.1914,1.36328 1.50976,2.14453 0,1.82617 3.6543,3.04492 -0.90039,1.97266 2.43555,2.72851 -1.07227,1.38868 1.50977,2.26367 0.46289,4.26367 -0.90039,1.2168 1.07031,1.82812 -1.07031,1.9961 0.14453,1.21875 1.21875,-0.92579 1.50976,1.53321 -2.11914,1.36523 -0.7539,0.90039 -1.68165,0.46289 -1.97265,0.92578 -0.14649,-0.12109 -2.28906,-1.70508 -2.89844,1.2168 -0.90039,-2.43555 -2.14453,0.14649 -4.65234,2.82617 1.12109,1.02148 -2.43554,1.97461 -0.29297,1.53321 -2.28907,0.29296 -1.21875,-1.36328 -3.04296,-0.29297 -0.31836,-1.53515 -1.82618,-1.2168 -2.58203,0.92578 1.68164,2.43555 2.11914,0 2.14258,1.36328 1.68164,1.36328 3.18946,-0.14453 0.60937,1.36328 2.11914,0.46289 0.7793,2.11914 1.36328,0.60938 -0.14453,1.67969 -1.82813,-0.29297 -0.60937,0.90234 1.36523,1.97266 -0.75586,3.36133 -1.82617,-0.14649 0.14649,2.11914 0.46289,0.75586 -2.14453,0 -0.29102,-1.21875 1.36328,-1.82617 -0.46289,-1.04688 -0.75586,-0.60937 -0.31641,-3.6543 -2.58203,-0.3164 -2.11914,-2.58204 -0.3164,5.33399 3.50781,2.58203 0.29297,2.89844 0.60937,3.33789 0.31641,3.36133 1.82617,-0.17188 3.19141,2.60742 2.14258,1.2168 0.14648,1.50977 1.67969,0.31835 4.87304,4.8711 1.14454,5.25976 0.21875,0.97461 1.07226,4.40821 0.29102,4.41015 -0.75391,1.2168 -0.75586,-3.65234 -2.14258,-8.35547 -7.77148,-7.01563 0.17187,-3.18945 -1.53515,-0.14648 -2.43555,3.65429 -0.75586,12.78711 -1.97265,12.9336 -1.38868,10.03515 -0.14453,2.60547 1.07031,-3.50781 2.11914,-2.75196 3.04493,2.75196 0.3164,0.90234 0.90235,1.2168 -3.80078,0.16992 -0.60938,-0.92383 -1.50976,0.60742 -0.31641,2.29102 -1.67969,2.28906 0,3.48242 -0.0254,0.14649 -2.70312,14.46875 -3.50782,13.39648 -1.07226,5.1875 -0.90039,3.65235 -2.26563,3.89843 -0.63281,1.11914 -3.50781,4.26368 -2.72657,1.07031 -1.9746,0.29297 0,1.68164 1.82812,1.67969 2.72656,0.14648 0.14649,1.97266 2.14453,0.16992 0.60742,-1.38867 2.89844,1.21875 1.82812,0.46289 0.4375,1.82617 -1.04687,0.92578 0,2.875 -2.14258,1.07031 -0.14649,1.36524 1.36329,1.5332 2.43554,0.75586 0.46289,-2.28906 1.36524,-1.50977 -0.14649,1.97266 1.07032,1.5332 2.72851,0 1.21875,1.65625 3.65235,0.60938 3.50781,2.14453 5.77344,0 0.3164,3.18945 3.94531,3.04492 1.53516,1.82617 1.67969,-0.90039 1.50976,-0.3164 0.75586,0.7539 1.38867,-0.7539 2.6543,-1.46094 0.24414,-3.14258 1.2168,-0.92578 0.63476,-5.01758 2.26368,0.46289 0.92578,-0.60937 -1.07227,-2.14258 4.11719,-3.50781 2.43555,-5.48047 1.50976,-1.97266 -1.82617,-2.72851 -1.21875,-1.82618 1.68164,-1.53515 -2.58203,-4.26172 -4.11719,-0.29297 -0.14453,-0.26758 -1.07226,-1.875 1.07226,-2.89843 1.50977,-1.97266 -0.46289,-2.58203 1.21679,-1.21875 -1.80078,-3.04492 1.50977,-1.82618 1.67968,-0.3164 1.50977,0.60937 2.14453,-1.82812 0.75391,2.29101 0.75586,1.07032 1.68164,-0.4629 -0.14649,-1.97265 0.48633,-1.07031 0.58399,-1.21875 1.80273,1.53515 2.43555,-2.43554 1.07226,1.50976 2.58203,-0.46289 2.75196,-0.29297 1.21875,-2.14258 4.55468,-0.43945 2.28907,2.26563 0.77929,-0.75391 1.50977,-0.46289 -0.60937,-2.11914 2.29101,-0.60938 2.89844,-0.60937 -0.63477,-1.82617 0.92578,-1.07227 0.75586,-2.89844 -1.68164,-1.82617 1.07227,-3.48437 2.28906,1.36523 3.36133,-0.60937 -1.5332,-3.36133 -1.21875,-4.55469 3.04492,-0.14648 0.60937,-1.60743 0.14649,-0.38867 1.38672,-1.36523 0.14648,-2.28906 3.33789,-0.29297 2.14258,-3.04297 -0.92578,-0.31836 -0.14649,-1.65625 2.58203,-0.31641 0.17188,-1.50976 1.2168,-0.7793 1.36523,-2.43555 -1.36523,-1.50976 0,-1.68164 1.04687,-0.90039 -0.0937,-0.14649 0.46094,-0.0723 3.23828,-1.51172 3.87305,1.73047 2.99609,4.2871 1.72852,-0.2207 2.58203,-2.58008 0.85351,1.50977 1.72852,-1.70508 2.36328,0.63281 0.0723,0.51172 1.97265,-1.38867 -0.60742,-1.50977 -0.92578,-0.92578 1.2168,-1.50976 1.21875,0 0.77929,-2.43555 0.60938,-1.21875 -0.46289,-2.75195 1.97265,-2.72852 2.75196,-1.67969 0.14648,-4.26367 1.36328,0.75586 1.53516,1.68164 1.50976,0 0.92578,-1.07226 -0.75585,-1.82617 0.75585,-2.72852 -0.46289,-2.58203 -0.92578,-1.07227 0,-2.14258 1.38867,-2.26562 -0.3164,-2.14258 -0.3418,-0.3418 -3.16601,-3.16601 -0.29297,-1.36523 2.89844,-1.67969 1.68164,-0.90039 0.4375,-2.14453 1.82812,-1.36329 -0.60937,-2.89843 -1.21875,-1.50977 -0.29102,-4.72656 -1.68164,-3.94531 -1.67969,-0.60938 -1.21875,-2.14258 -1.07226,1.36328 -1.04688,-1.36328 0,-1.82812 -1.82617,-2.58008 -5.01758,0.60742 -2.89844,-0.7539 -7.62304,-0.92579 -0.90235,2.43555 -2.75195,-0.14648 -0.60937,-0.31641 -1.82618,0.16992 -1.36523,-0.92578 -2.62891,3.02149 -0.41406,0.48632 -2.43555,-2.43554 -1.36523,1.36328 -3.82422,-0.29102 -0.42773,-0.0957 1.20703,-0.2207 0.29297,-2.29102 -1.65625,-0.90039 -0.92579,-3.19141 -2.43554,-0.3164 -1.50977,-1.50977 -2.89844,-2.28906 0.60938,-1.82813 0,-2.89843 -2.75391,-2.72657 -0.29101,-2.14453 -2.60742,-2.72656 -0.9004,-3.6543 -1.07226,-0.46289 -1.2168,-1.67968 -1.21875,0.7539 0.31641,1.68164 -3.96875,0.92578 -4.55469,0 0.14453,-1.82812 0,-2.89844 -3.65234,-1.07226 0,-1.82618 -2.89844,-0.60937 -0.60937,-2.43555 z"
       transform="matrix(1.2424004,0,0,1.2424004,-13.663322,101.16549)"
       class="land"
       id="path66"
       inkscape:connector-curvature="0" />
    <text
       class="region-name"
       id="text4270-3-1-7-9-7-6-4"
       y="412.55563"
       x="178.25273"
       xml:space="preserve"><tspan
         id="tspan4425-4"
         y="412.55563"
         x="178.25273">Aquitaine, Limousin</tspan><tspan
         id="tspan4450"
         y="427.55563"
         x="178.25273">et Poitou-Charentes</tspan></text>
  </g>
  <g
     class="region pays-de-la-loire"
     id="pays-de-la-loire"
     transform="matrix(0.80489351,0,0,0.80489351,52.622412,-81.697627)">
    <path
       d="m 196.17383,115.2832 -1.50977,0.14649 -0.63281,1.50976 -2.26563,0.92578 -4.11523,-0.60937 -4.11719,2.43555 -1.50976,-1.07032 -2.28906,1.53321 -1.68165,-1.2168 -1.07031,-1.82812 -2.26562,-0.92579 -1.53516,1.21875 -2.58203,-0.3164 -0.14649,3.9707 0.75586,0.60742 0,3.04492 -1.53515,1.53516 0,2.43555 0.46289,1.50976 0,4.40821 1.07226,1.07226 0,4.11719 -2.58203,-0.31641 -1.07226,0.60742 -1.97266,4.8711 -0.7793,2.7539 -0.24414,0.53516 -0.33984,0.68164 -0.21875,-0.0488 -2.84961,-0.70507 -1.36523,-1.82813 -2.28907,-0.31641 -0.14648,1.68164 -3.33594,0.4629 -1.53515,1.50976 -0.60938,1.67969 -9.42578,0.46289 -3.9707,2.11914 -0.14649,4.26367 -4.26172,1.67969 -2.89843,1.50976 -2.43555,0 -0.90039,-1.04687 -1.36524,1.36328 -0.65625,0.12305 0.7793,0.53515 -2.89844,2.58204 0.60743,0.60937 0.60937,1.2168 -1.53516,2.14453 1.68164,0.90039 2.89844,0.60937 0.29297,-1.21875 1.67969,2.14454 2.75195,0 1.97266,-2.14454 2.58203,0 -2.72656,1.36524 0.14453,1.5332 0.60937,1.36524 -1.67969,1.67968 -1.82812,0 0.31641,2.28907 3.33789,-0.60743 3.9707,3.65235 -0.19531,0.24414 -4.53125,5.8457 -0.14453,3.6543 4.69921,4.55469 -0.14453,1.36328 1.36329,0 2.89843,8.69531 3.04492,1.50977 3.04493,3.04492 3.50586,0 1.36523,3.04492 3.36133,0 1.50976,2.28906 3.36133,1.68164 0.14649,-2.14453 0.85156,0.80469 4.65234,-2.82617 2.14453,-0.14649 0.90039,2.43555 2.89844,-1.2168 2.43555,1.82617 1.97265,-0.92578 1.68165,-0.46289 0.7539,-0.90039 2.11914,-1.36523 -1.50976,-1.53321 -1.21875,0.92579 -0.14453,-1.21875 1.07031,-1.9961 -1.07031,-1.82812 0.90039,-1.2168 -0.46289,-4.26367 -1.50977,-2.26367 1.07227,-1.38868 -2.43555,-2.72851 0.90039,-1.97266 -3.6543,-3.04492 0,-1.82617 -1.50976,-2.14453 0.29297,-0.1211 2.89843,-1.24218 4.72461,1.07226 2.11914,-1.38867 0,-2.11914 4.11719,-0.31641 3.79883,-0.75586 4.11719,-0.14648 0.46289,1.07227 1.07031,0.90039 1.04883,-1.82618 2.89844,-3.04492 1.16796,0 1.73047,-6.23437 2.43555,-2.89844 -0.17188,-3.33789 1.53516,-1.99609 0,-0.90235 -0.75586,-0.92578 0.48828,-0.99805 1.02344,-2.04492 3.04492,2.14258 1.67969,0 -0.92578,-3.04492 1.85156,1.21875 1.04688,-1.53516 4.4082,-1.21875 -0.75391,-1.82617 1.07032,-1.36328 2.29101,-0.90235 2.11914,-2.75195 0,-2.89844 1.5332,0 0.60938,-2.11914 0.14648,-3.18945 -1.50976,-1.38867 1.21679,-2.11914 1.80274,-2.28907 -2.11914,-1.51171 -1.97266,-0.31641 -2.14258,-3.18945 -0.60937,0 -0.14649,1.50976 -0.14648,-1.04687 -3.19141,0 -1.5332,-2.29102 -2.58203,-0.92578 -0.75586,-5.48047 -1.2168,-1.65625 -4.11718,0.14649 -4.11524,3.80078 -2.14453,-0.12305 -0.4375,-0.0234 -0.7793,-2.75195 -1.97265,-0.75586 -0.60938,-3.33594 z"
       transform="matrix(1.2424004,0,0,1.2424004,-13.663322,101.16549)"
       class="land"
       id="path72"
       inkscape:connector-curvature="0" />
    <text
       class="region-name"
       id="text4270-3-1-7"
       y="301.51678"
       x="168.24765"
       xml:space="preserve"><tspan
         id="tspan4326-9"
         y="301.51678"
         x="168.24765">Pays de</tspan><tspan
         y="314.26868"
         x="168.24765"
         id="tspan4314">la Loire</tspan></text>
  </g>
  <g
     class="region normandie"
     id="normandie"
     transform="matrix(0.80489351,0,0,0.80489351,52.622412,-81.697627)">
    <path
       d="m 242.50195,49.105469 -0.99804,1.21875 -6.5293,5.017578 -11.56836,2.898437 -7.625,2.726563 -6.23437,3.361328 -3.6543,5.480469 -0.75391,4.263672 3.04492,2.289062 4.40821,0.900391 -0.70703,0.123047 0.0254,0.121093 c 0.91392,7.321352 0.83013,6.638532 -0.0254,-0.121093 l -3.55665,0.632812 -5.79687,3.361328 -6.52734,2.582032 -5.1875,-2.898438 -12.47071,-1.828125 -2.89843,-1.509766 -4.50586,1.144532 -1.4375,0.365234 -0.14649,-3.652344 -3.9707,-4.701172 1.21875,-3.044921 1.67969,0 -1.50977,-4.115235 -6.55078,-0.318359 -3.50781,2.435547 -3.94532,-2.580079 -5.65234,-1.68164 -0.60742,1.535156 3.21484,2.582031 0,3.361329 -1.21875,1.509765 0.75586,0.753906 0.46289,0.31836 -0.3164,2.898437 1.07031,2.435547 3.50781,3.945313 0.75586,3.507812 0.75391,1.070313 0,5.480468 1.82812,3.654297 0,4.261719 -1.97265,3.947265 2.11718,5.47852 3.36133,0.75586 0.29297,1.53515 -1.65625,0.75391 -2.87305,0 0.46094,1.92383 0.90234,2.89843 2.60547,2.29102 1.21875,0.29101 1.2168,-1.65624 1.36523,-0.16993 1.65625,-1.97265 1.53321,1.21679 1.82812,0 1.2168,0.60938 0,0.29297 2.58203,0.3164 1.53516,-1.21875 2.26562,0.92579 0.0469,0.0977 1.02343,1.73047 1.68165,1.2168 2.28906,-1.53321 1.50976,1.07032 4.11719,-2.43555 4.11523,0.60937 2.26563,-0.92578 0.63281,-1.50976 1.50977,-0.14649 1.36523,1.21875 0.60938,3.33594 1.97265,0.75586 0.7793,2.75195 2.58203,0.14649 4.11524,-3.80078 4.11718,-0.14649 1.2168,1.65625 0.75586,5.48047 2.58203,0.92578 1.5332,2.29102 3.19141,0 0.14648,1.04687 0.14649,-1.50976 0.60937,0 2.14258,3.18945 1.65625,0.26758 0,-3.60352 -1.04687,-1.38867 -0.31641,-1.21875 2.28906,-1.36328 2.28907,-0.46289 1.50976,-1.82617 -0.29101,-5.62696 -3.21485,-2.72851 -0.14648,-2.60547 -0.51172,-0.3418 2.19141,-2.09375 2.11914,0 5.50586,-2.875 1.80078,0.75586 3.82422,0 0.90234,-1.07226 0,-2.28907 3.04492,-1.50976 0,-2.43555 0.82813,-0.681639 -0.0742,-0.683594 0.77929,-0.779297 -1.36328,-0.291016 0,-1.21875 -0.77929,-1.216796 0.60937,-0.75586 4.26172,-1.21875 1.07227,-1.826172 0.92578,-3.361328 1.11914,-1.388672 0.24414,-1.802734 1.36328,0.755859 1.07226,-0.292969 -0.77929,-1.216796 -0.43945,-3.507813 -1.36329,-1.216797 0.0254,-0.09766 0.41407,-1.267578 1.07031,-1.996094 0.60937,-1.048828 -1.53515,0 0,-2.605469 -0.90039,-1.509765 0.60937,-3.044922 0.60742,-1.535156 -1.21679,0 0.60937,-1.509766 1.50977,-1.826172 -1.50977,-2.751953 -0.46289,-2.728516 -6.69922,-6.552734 -0.7539,-1.509766 -1.68164,0.146485 z"
       transform="matrix(1.2424004,0,0,1.2424004,-13.663322,101.16549)"
       class="land"
       id="path78"
       inkscape:connector-curvature="0" />
    <text
       class="region-name"
       id="text4270-3"
       y="225.29036"
       x="189.25031"
       xml:space="preserve"><tspan
         id="tspan4278-2"
         y="225.29036"
         x="189.25031">Normandie</tspan></text>
  </g>
  <g
     class="region bourgogne-franche-comte"
     id="bourgogne-franche-comte"
     transform="matrix(0.80489351,0,0,0.80489351,52.622412,-81.697627)">
    <path
       d="m 302.12695,123.80859 -1.36328,1.04688 -5.94336,-0.29297 -2.72851,1.36523 -1.07032,2.28907 1.2168,1.36328 -1.82617,2.14453 -1.38867,1.65625 2.75195,2.60547 0.75586,2.43555 1.99609,2.11914 0,2.75195 -3.96875,3.33789 1.36329,1.53516 -0.29297,2.26367 -2.14258,1.53515 -3.04492,0 0.46289,1.67969 1.97265,2.72852 0.46289,2.43554 0.46289,1.68164 -0.90039,0.26758 -2.14453,0.63281 0.14649,1.53516 1.82617,2.11914 0,2.89844 -1.36328,1.97266 0.4375,1.82617 2.7539,2.14453 0.14453,2.11914 1.53516,3.21484 -0.3164,3.65235 1.67968,1.65625 -0.46289,3.9707 -0.14453,1.97266 0.75391,1.36523 -1.16797,3.72656 0.0976,1.14453 2.60547,1.2168 1.82618,1.99805 1.65624,-0.92578 1.53516,-0.90039 0.31641,1.36328 2.26562,0 0.60938,-1.21875 1.36328,0.60937 0.46289,1.97266 1.2168,-0.29102 2.89843,-3.9707 1.51172,1.07227 0.24219,0.46289 2.82617,5.30859 0,2.28906 0.75391,0.92578 2.58203,0 0.90234,1.21875 2.43555,0 1.07227,1.50977 -0.14649,5.94336 -3.1914,2.43555 -0.0723,0.16992 0.21875,-0.0234 0.46289,0.14648 0.14648,2.43555 2.28907,0.46289 0.29297,1.07031 1.21679,0 1.82617,-1.07031 4.87305,0.75391 0.92383,0.92578 1.21875,-1.2168 1.67969,0 0.90234,-4.87304 0.60938,-0.46289 1.50976,0 1.85156,1.21874 1.36329,-1.21874 0.90039,1.21874 1.38867,-1.36328 1.65625,-0.14648 0.77929,2.43555 0.58594,3.04492 1.07031,0.14648 0.92579,-2.14453 2.875,-11.25195 1.07031,-1.97266 1.68164,-0.17187 1.67969,1.38867 1.21875,-0.31641 1.50976,-1.07226 1.53516,0.3164 0.90039,1.97461 0.87695,0.33985 1.875,0.73046 3.04492,4.26368 1.97266,0.90039 0,2.14258 2.29102,-0.31641 2.89843,-3.18945 2.43555,1.21679 0,1.82813 4.4082,0 6.33203,-6.9668 -0.26757,-0.14648 0.29297,-3.19141 2.28906,-2.72656 -1.53516,-0.60938 0.14649,-0.92578 0.0254,-0.14648 9.42578,-8.8418 -0.29297,-7.30664 3.33789,-1.65625 2.28906,-1.07227 2.11914,-1.97265 0.16992,-2.89844 2.11914,-1.07031 4.8711,-5.62696 -0.75391,-1.82812 1.67969,-0.75391 1.97266,-2.43554 -1.07032,-1.07227 -3.65429,0.75586 -0.14649,-0.60937 3.36133,-3.87305 0.58399,-0.68164 2.02343,-0.31641 -0.75586,-3.24023 -0.46289,-1.67969 -2.14258,0.31641 -0.29296,-1.82813 0.7539,-1.38672 0.14649,-1.82812 -0.4375,-1.04688 -2.75196,-2.14258 -2.43554,-0.14648 -0.46289,-0.92578 -0.14649,-0.29297 -4.87109,-2.58203 -1.36524,-1.5332 -1.36328,-0.90235 -1.21875,0.60938 -0.16992,0.90234 -1.2168,0.75391 -0.75586,0 -2.28906,-2.58203 -3.19141,0 -1.36328,1.07226 -1.21875,0.14649 -1.97265,-1.50977 0.14648,-1.68164 -0.7793,-0.60938 -2.875,0.4629 -0.46289,1.50976 -1.5332,1.07227 -1.04883,-1.2168 -0.7539,0.46289 0.58398,0.90039 -1.50976,0.92578 0.46289,1.2168 -1.68164,0.60937 0,1.97266 -2.14258,0 -0.14649,1.21875 -2.11914,0.46289 0.14649,1.82617 1.36328,0.14649 -0.75391,0.90039 -0.46289,3.04492 -1.36523,0 -2.28907,0.92578 -2.43554,-0.92578 -2.11914,0.92578 0,1.53516 -0.14649,-0.0254 -0.63281,1.53515 -3.33594,0.75586 -0.3164,-0.75586 -2.4375,-3.04492 -1.36329,0.75586 -1.82617,-0.14648 -0.60937,-1.21875 -2.43555,0.14648 -0.14648,-2.58203 -1.36328,-0.92578 1.97265,-2.11914 -3.50781,-4.72461 -2.72852,-2.89844 -2.43554,-1.36328 -4.40821,0 -0.3164,1.97266 -1.97266,1.07226 -5.01758,0.14453 -0.77929,1.68164 -1.07227,-0.14648 -0.90039,-1.67969 -3.04492,1.5332 -6.08985,-0.3164 -0.7539,-1.67969 -1.68164,-2.26563 -0.29297,-2.75195 -2.43555,-2.89844 -1.5332,1.07032 -2.75195,-2.11914 0.46093,-4.11524 -3.94531,-4.11719 -1.82617,0 z"
       transform="matrix(1.2424004,0,0,1.2424004,-13.663322,101.16549)"
       class="land"
       id="path19"
       inkscape:connector-curvature="0" />
    <text
       class="region-name"
       id="text4270-3-1-7-9-7-6"
       y="322.22293"
       x="360.65045"
       xml:space="preserve"><tspan
         id="tspan4326-9-1-4-7"
         y="322.22293"
         x="360.65045">Bourgogne</tspan><tspan
         id="tspan4425"
         y="337.22293"
         x="360.65045">et Franche Comté</tspan></text>
  </g>
  <g
     class="region centre"
     id="centre"
     transform="matrix(0.80489351,0,0,0.80489351,52.622412,-81.697627)">
    <path
       d="m 246.56836,99.451172 -0.92383,0.755858 0,2.43555 -3.04492,1.50976 0,2.28907 -0.90234,1.07226 -3.82422,0 -1.80078,-0.75586 -5.50586,2.875 -2.11914,0 -2.19141,2.09375 0.51172,0.3418 0.14648,2.60547 3.21485,2.72851 0.29101,5.62696 -1.50976,1.82617 -2.28907,0.46289 -2.28906,1.36328 0.31641,1.21875 1.04687,1.38867 0,3.60352 0.31641,0.0488 2.11914,1.51171 -0.7793,0.97266 -1.02344,1.31641 -1.21679,2.11914 1.50976,1.38867 -0.14648,3.18945 -0.60938,2.11914 -1.5332,0 0,2.89844 -2.11914,2.75195 -2.29101,0.90235 -1.07032,1.36328 0.46289,1.14453 0.29102,0.68164 -4.4082,1.21875 -1.04688,1.53516 -1.85156,-1.21875 0.92578,3.04492 -1.67969,0 -3.04492,-2.14258 -1.51172,3.04297 0.75586,0.92578 0,0.90235 -1.53516,1.99609 0.17188,3.33789 -2.43555,2.89844 -1.73047,6.23437 0.19532,0 0.60937,2.43555 2.89844,0.60937 0,1.82618 3.65234,1.07226 0,2.89844 -0.14453,1.82812 4.55469,0 3.96875,-0.92578 -0.31641,-1.68164 1.21875,-0.7539 1.2168,1.67968 1.07226,0.46289 0.9004,3.6543 2.60742,2.72656 0.29101,2.14453 2.36328,2.33789 0.39063,0.38868 0,2.89843 -0.60938,1.82813 2.89844,2.28906 1.50977,1.50977 2.43554,0.3164 0.92579,3.19141 1.65625,0.90039 -0.29297,2.29102 -1.2168,0.21875 0.4375,0.0977 3.82422,0.29102 1.36523,-1.36328 2.43555,2.43554 3.04297,-3.50781 1.36523,0.92578 1.82618,-0.16992 0.60937,0.31641 2.75195,0.14648 0.90235,-2.43555 7.62304,0.92579 2.89844,0.7539 1.31445,-0.14648 3.58008,-0.4375 0.73242,-1.5586 1.97266,-2.26562 3.79883,-0.7793 1.99805,0.60938 2.11914,-1.65625 -0.14649,-1.21875 -0.75586,-0.60938 0,-2.43555 4.0918,-4.11523 1.53516,1.67969 1.36328,-1.38672 1.21875,-0.14648 2.11914,-2.72852 3.50781,0.29297 0.0488,0.82812 1.16797,-3.72656 -0.75391,-1.36523 0.14453,-1.97266 0.46289,-3.9707 -1.67968,-1.65625 0.3164,-3.65235 -1.53516,-3.21484 -0.14453,-2.11914 -2.7539,-2.14453 -0.4375,-1.82617 1.36328,-1.97266 0,-2.89844 -1.58203,-1.85156 -0.24414,-0.26758 -0.14649,-1.53516 3.04492,-0.90039 -0.46289,-1.68164 -0.46289,-2.43554 -1.97265,-2.72852 -0.46289,-1.67969 3.04492,0 2.14258,-1.53515 0.29297,-2.26367 -1.36329,-1.53516 3.96875,-3.33789 0,-2.75195 -1.99609,-2.11914 -0.75586,-2.43555 -2.75195,-2.60547 -3.80078,2.14258 -0.29102,-1.2168 -1.68164,-0.14648 -0.46289,1.21679 -1.50977,0.29297 -4.11523,-0.14648 -1.68164,1.07226 -1.36328,-1.21875 2.43554,-1.67968 -0.14648,-2.58204 -1.82617,-0.92578 -1.53516,-2.28906 -4.0918,-0.29297 -1.67968,-1.36328 -1.97461,1.82617 -4.45703,0.39063 -0.41407,0.0488 -0.3164,-4.0918 -0.31641,-0.46289 -0.29297,-1.97266 -3.18945,-0.60937 -1.38867,-1.68164 -0.43945,-3.36133 -1.82618,-0.29102 -0.3164,-1.68164 -2.11914,-1.50976 -1.07227,-2.60547 1.07227,-1.82813 -1.07227,-1.21679 0,-1.50977 0.60938,-1.68164 -1.2168,-1.2168 -0.46289,-1.82812 z"
       transform="matrix(1.2424004,0,0,1.2424004,-13.663322,101.16549)"
       class="land"
       id="path95"
       inkscape:connector-curvature="0" />
    <text
       class="region-name"
       id="text4270-3-1-7-9-7"
       y="317.70313"
       x="266.21609"
       xml:space="preserve"><tspan
         id="tspan4326-9-1-4"
         y="317.70313"
         x="266.21609">Centre</tspan></text>
  </g>
  <g
     class="region lorraine-alsace-champ"
     id="lorraine-alsace-champ"
     transform="matrix(0.80489351,0,0,0.80489351,52.622412,-81.697627)">
    <path
       d="m 340.46484,44.697266 -1.53515,2.265625 -1.36328,1.386718 0,1.365235 0,1.826172 -1.82618,1.21875 -3.33789,1.070312 -1.82617,0.75586 -2.14258,-1.679688 -2.89843,0 -0.41407,2.703125 1.36329,2.582031 -1.36329,1.216797 -0.14648,2.289063 0.75391,1.21875 -0.60743,1.826172 -2.29101,1.21875 0,1.972656 -2.89844,0.609375 -0.46289,1.216797 1.99805,1.072265 -0.60938,2.119141 -0.46289,1.826172 0.0977,3.800781 0.0488,1.388672 -1.07227,0.291015 -2.58203,-1.679687 -1.82617,0.779297 0.3164,1.509766 -3.21484,0 -2.87305,2.142578 0,4.091796 2.11914,1.388672 0.60742,1.365235 -3.50585,0.291015 -0.43946,1.388672 1.36328,0.902344 -0.60742,0.923828 -1.36523,0.609375 0.29297,1.046875 1.97265,0 0.7793,1.072266 -1.36328,0.925781 -1.21875,3.191405 -2.28906,1.07031 -0.7793,1.65625 -0.75586,0.92579 0.17187,0.90234 -1.21875,0.7793 -0.3164,2.11914 1.21679,0.7539 0.60938,2.29102 -0.75391,1.36328 0.46289,1.07226 2.26368,-0.14648 0,0.75391 0,0.46289 -2.11914,0.90234 -0.14454,1.82617 -1.07226,1.38867 -0.60938,3.04493 -0.33984,2.55664 0.94922,0.77929 1.82617,0 3.94531,4.11719 -0.46093,4.11524 2.75195,2.11914 1.5332,-1.07032 2.43555,2.89844 0.29297,2.75195 1.68164,2.26563 0.7539,1.67969 6.08985,0.3164 3.04492,-1.5332 0.90039,1.67969 1.07227,0.14648 0.77929,-1.68164 5.01758,-0.14453 1.97266,-1.07226 0.3164,-1.97266 4.40821,0 0.60937,0.33984 1.82617,1.02344 2.72852,2.89844 3.50781,4.72461 -1.97265,2.11914 1.36328,0.92578 0.14648,2.58203 2.43555,-0.14648 0.60937,1.21875 1.82617,0.14648 1.36329,-0.75586 2.4375,3.04492 0.3164,0.75586 3.33594,-0.75586 0.63281,-1.53515 0.14649,0.0254 0,-1.53516 2.11914,-0.92578 2.43554,0.92578 2.28907,-0.92578 1.36523,0 0.46289,-3.04492 0.75391,-0.90039 -1.36328,-0.14649 -0.14649,-1.82617 2.11914,-0.46289 0.14649,-1.21875 2.14258,0 0,-1.97266 1.68164,-0.60937 -0.46289,-1.2168 0.46289,-0.29297 1.04687,-0.63281 -0.58398,-0.90039 0.7539,-0.46289 1.04883,1.2168 1.5332,-1.07227 0.46289,-1.50976 2.875,-0.4629 0.7793,0.60938 -0.14648,1.68164 1.97265,1.50977 1.21875,-0.14649 1.36328,-1.07226 3.19141,0 2.28906,2.58203 0.75586,0 1.2168,-0.75391 0.16992,-0.90234 1.21875,-0.60938 1.36328,0.90235 1.36524,1.5332 4.79687,2.5332 0.0742,0.0488 0.60938,1.21875 2.43554,0.14648 2.75196,2.14258 0.4375,1.04688 -0.14649,1.82812 -0.7539,1.38672 0.29296,1.82813 2.14258,-0.31641 0.46289,1.67969 0.75586,3.24023 1.80078,-0.29297 -0.3164,1.65625 1.07226,0.92578 5.62696,-0.14648 2.89843,-2.28906 0.14649,-3.36133 1.5332,-1.97266 -1.99609,-2.28906 -1.04883,-2.43555 1.21875,-1.6582 0,-3.82227 0.75391,-1.82812 0,-3.04492 1.36523,-1.97266 -1.50977,-2.11914 -0.14648,-4.38281 -0.0254,-0.48828 3.9707,-7.76953 -0.46289,-4.40821 1.82617,-5.94336 0.46289,-5.1875 3.94727,-2.875 0,-1.82617 1.5332,-1.99804 1.21875,0 1.36328,-1.363286 -0.29101,-2.582032 1.36328,-3.654296 2.11914,-0.462891 -2.11914,-1.679687 -3.80078,-0.4375 -3.36133,-1.681641 -2.28906,1.363281 -1.2168,-1.363281 -1.65625,0 -2.89844,0.804687 -0.3164,0.0957 -1.04883,-1.509766 -3.04492,-1.826172 -1.07031,-1.681641 -3.6543,0.31836 -2.14258,1.972656 -5.16406,0.146484 -1.53516,-1.072265 c -0.10288,-0.186615 -0.85164,-1.508178 -1.50976,-1.875 -0.0255,-0.01352 -0.0676,-0.03579 -0.0977,-0.04883 -0.0222,-0.0091 -0.0537,-0.01992 -0.0723,-0.02539 -0.008,-0.004 -0.0401,-0.01893 -0.0488,-0.02344 -0.002,8e-6 -0.0227,-1.05e-4 -0.0254,0 -0.0195,-8.05e-4 -0.0567,0 -0.0723,0 -0.71358,8e-6 -2.09559,-0.80199 -2.26563,-0.902344 l -2.14257,0.902344 -0.14649,1.826171 -2.58203,0.316407 -1.53516,-2.898438 -0.90039,-0.316406 0,-2.119141 -2.14257,-0.925781 -0.14649,-3.652344 -1.53516,-1.511718 -3.1914,-1.533204 -1.50977,0 -0.46289,0.316407 -1.5332,0 -2.11914,-1.828125 0,0.002 -2.29102,0.144531 -1.82617,1.535156 -0.46289,0.75586 -2.58203,0 -0.90039,-0.925782 -0.39063,0 -2.04492,0 -2.75195,-3.044922 -3.50781,0 -1.82813,1.679688 -2.58008,0.146484 -0.90234,0.925782 -0.19531,0 -0.73047,0 -0.60742,-2.898438 -1.21875,-1.21875 -0.87696,-0.121094 -1.0957,-0.169922 -0.60937,-3.044921 -1.2168,-0.925782 -4.26367,-0.46289 -0.75391,-1.972657 -1.38867,-0.90039 -4.8711,-0.609375 -0.29296,-3.507813 0.60937,-0.609375 0,-1.363281 -2.43555,-1.535156 0.46289,-1.679688 0.60743,-1.509765 -1.07032,-0.925781 1.67969,-1.509766 0,-2.753906 -0.60937,-0.4375 z"
       transform="matrix(1.2424004,0,0,1.2424004,-13.663322,101.16549)"
       class="land"
       id="path29"
       inkscape:connector-curvature="0" />
    <text
       class="region-name"
       id="text4270-3-1-7-9-0"
       y="219.31927"
       x="380"
       xml:space="preserve"><tspan
   id="tspan4326-9-1-8"
   y="219.31927"
   x="380">Alsace,</tspan> <tspan
   id="tspan147"
   y="234.31927"
   x="380">Champagne-Ardenne</tspan>          <tspan
   id="tspan4387"
   y="250.31927"
   x="380">et Lorraine</tspan></text>
  </g>
  <g
     class="region idf"
     id="ile-de-france"
     transform="matrix(0.80489351,0,0,0.80489351,52.622412,-81.697627)">
    <path
       d="m 253.12109,86.664062 -1.21679,1.509766 -0.92578,3.361328 -1.02344,1.730469 -0.0488,0.0957 -4.26172,1.21875 -0.60937,0.75586 0.77929,1.216796 0,1.21875 1.36328,0.291016 -0.77929,0.779297 0.0742,0.683594 0.0957,-0.07422 1.51172,1.509772 0.46289,1.82812 1.2168,1.2168 -0.60938,1.68164 0,1.50977 1.07227,1.21679 -1.07227,1.82813 1.07227,2.60547 2.11914,1.50976 0.3164,1.68164 1.82618,0.29102 0.43945,3.36133 1.38867,1.68164 2.45898,0.46289 0.73047,0.14648 0.29297,1.97266 0.31641,0.46289 0.3164,4.0918 4.8711,-0.43946 1.97461,-1.82617 1.67968,1.36328 4.0918,0.29297 0.58399,0.87695 0.95117,1.41211 1.82617,0.92578 0.14648,2.58204 -2.43554,1.67968 1.36328,1.21875 1.68164,-1.07226 4.11523,0.14648 1.50977,-0.29297 0.46289,-1.21679 1.68164,0.14648 0.29102,1.2168 3.80078,-2.14258 1.38867,-1.65625 1.82617,-2.14453 -1.2168,-1.36328 1.07032,-2.28907 2.72851,-1.36523 5.94336,0.29297 1.36328,-1.04688 0.12305,0.1211 0.33984,-2.55664 0.60938,-3.04493 1.07226,-1.38867 0.14454,-1.82617 2.11914,-0.90234 0,-1.2168 -2.26368,0.14648 -0.46289,-1.07226 0.75391,-1.36328 -0.60938,-2.29102 -1.21679,-0.7539 0.3164,-2.11914 1.21875,-0.7793 -0.17187,-0.90234 0.43945,-0.53516 -2.55859,-0.53516 -0.7793,-1.82812 -1.36328,-0.46289 -4.0918,-3.94532 -0.46289,-3.361328 -1.68164,-1.216797 -0.92383,0.462891 -1.51171,1.216797 -1.50977,-0.462891 -2.60547,1.072266 -2.11914,-1.21875 -0.92578,1.21875 -1.36328,0.146484 -0.92578,-0.755859 -1.50977,-0.900391 -1.82812,1.216797 -0.0723,-0.07227 -1,-1 -3.33594,-1.972657 -3.21484,-1.679687 L 269.09961,90 l -1.82617,0.462891 -1.21875,-0.923829 -2.43555,-1.511718 -1.97266,1.511718 -2.89843,0.316407 -4.11719,-0.316407 -0.92578,-1.511718 z"
       transform="matrix(1.2424004,0,0,1.2424004,-13.663322,101.16549)"
       class="land"
       id="path151"
       inkscape:connector-curvature="0" />
    <text
       class="region-name"
       id="text4270-3-1-7-9"
       y="246.76158"
       x="275.04358"
       xml:space="preserve"><tspan
         id="tspan4326-9-1"
         y="246.76158"
         x="275.04358">Île-de-France</tspan></text>
  </g>
  <g
     class="region guadeloupe"
     id="guadeloupe"
     transform="matrix(0.84297132,0,0,0.84297132,-591.55468,-116.38724)">
    <path
       id="path37"
       nodetypes="cccccccccccccccccccccccscccccccccccccccccccccccccccccc"
       label="Guadeloupe"
       class="land departement dom departement971"
       d="m 766.25908,142.69563 -2.73786,0.80228 -2.52098,2.74112 0.10845,6.15079 1.95173,0.40114 0.10844,3.81083 -1.92464,1.83855 -0.3524,3.00856 0,0.53481 -1.70776,2.2063 -0.10843,0.40115 -3.76795,-0.26746 -0.46082,-2.23969 -2.73787,-1.93885 -4.87934,-3.14223 -5.36728,0 -2.49388,4.71338 0.10844,6.78595 0.67767,2.77455 0.10844,0.50141 0.3524,5.24822 1.59932,9.69424 1.59935,5.11451 c 10e-6,0 1.1275,1.31717 1.35539,1.97226 0.22789,0.6551 1.49091,2.74111 1.49091,2.74111 l 2.49388,0.40115 0.70478,-1.60458 0.10844,0.16727 2.49389,0 3.76793,-3.94453 2.38548,-4.04483 -0.10845,-9.42675 -1.38248,-4.98082 0.46084,-4.07826 2.60231,-0.63514 0.0272,0 0.78612,1.16998 2.1686,0.63516 1.70777,0.80226 0.16267,-0.10018 0.18977,0.76886 3.3071,0.23398 5.69257,-1.30371 3.1987,-2.87483 5.58413,-0.26741 4.7709,-1.97228 -2.95471,-2.07255 -0.3524,-1.97226 -3.76793,-3.00855 -7.15638,-0.13372 -2.16857,-4.57965 0,-5.11454 -1.49095,-3.94454 -3.6324,-1.97225 z"
       inkscape:connector-curvature="0" />
    <text
       class="region-name"
       id="text4270-3-1-7-9-0-7"
       y="169.49734"
       x="706.573"
       xml:space="preserve"><tspan
         id="tspan4387-9"
         y="169.49734"
         x="706.573">Guadeloupe</tspan></text>
  </g>
  <g
     class="region martinique"
     id="martinique"
     transform="matrix(0.84297132,0,0,0.84297132,-591.55468,-116.38724)">
    <path
       d="m 752.69186,216.55472 c 0,0 -6.5946,0.19767 -7.40034,0.56828 -0.80573,0.37052 -4.03899,3.14226 -4.03902,3.14226 l -0.48792,0.16705 -1.92462,3.54339 0.65056,4.61309 5.63836,6.85282 -0.97587,1.87198 0,3.71053 2.41256,4.07824 7.75276,8.52423 6.9124,0 0.65058,0 1.92462,-0.20059 0.32529,0 -0.32529,1.67144 0,1.30368 2.27704,0.73541 0.94875,0.73544 c 0,0 -0.31784,3.15754 0.48793,3.34283 l -2.41257,0.16705 -3.38843,-1.27028 -2.24991,-0.56827 -2.90051,1.47084 -1.62646,2.40684 -0.78611,2.77454 0.62349,2.80799 1.62644,2.77453 2.08729,1.47084 c 0,0 2.09476,-0.73268 2.90048,-1.10314 0.80575,-0.37065 1.46383,-2.03912 1.46379,-2.03909 0,0 2.39596,-0.18237 3.52399,-0.36773 1.12802,-0.18529 2.27702,1.67138 2.27702,1.67141 l 5.31308,0.90257 2.41257,1.67139 1.43669,-0.16704 0,-1.87199 1.30117,-0.90257 1.30115,0.90257 -0.65057,2.23969 -1.4638,1.67139 0.65056,3.3094 1.92466,1.30371 2.27701,-0.16705 2.24993,-2.23969 0.65056,-2.94168 2.24993,-2.97513 -1.4638,-3.71054 -0.94876,-3.34283 -1.13851,-4.44594 -1.13851,-3.14228 c 0,0 -2.7379,-3.33716 -2.73785,-4.07824 0,-0.74108 -2.57522,-2.4068 -2.57522,-2.40682 l -0.32529,-2.9751 c 0,0 0.65801,-0.89963 1.4638,-1.27031 0.80566,-0.37054 -0.48795,-2.03914 -0.48795,-2.03911 l -1.59933,0.3677 -2.43967,0.73541 -0.62348,-0.93598 -0.97587,-1.3037 0.16266,-1.67139 1.76202,0.40113 1.46379,-2.03914 -2.08727,-2.0391 -1.62645,-0.56829 -0.48793,-1.10315 0,0 0,-1.30368 1.78908,-0.936 1.27406,1.30371 2.24991,1.10313 1.13851,-1.67143 0,-1.83855 0.97589,-1.47085 -0.81322,-1.13655 -1.762,-0.90257 -1.13852,1.27028 -4.49984,0.56829 -1.4638,1.30369 -1.92464,-0.73541 -2.24991,-4.44598 -5.17752,-6.31793 -2.90052,-1.47084 -5.31306,-3.34283 z"
       class="land departement dom departement972"
       label="Martinique"
       nodetypes="cscccccccccccccccccccccccccccscscccccccccccccccccccsccsccccccccccccccccccccccccccccc"
       id="path39"
       inkscape:connector-curvature="0" />
    <text
       class="region-name"
       id="text4270-3-1-7-9-0-7-7"
       y="245.79198"
       x="704.6416"
       xml:space="preserve"><tspan
         id="tspan4387-9-3"
         y="245.79198"
         x="704.6416">Martinique</tspan></text>
  </g>
  <g
     class="region guyane"
     id="guyane"
     transform="matrix(0.84297132,0,0,0.84297132,-591.55468,-116.38724)">
    <path
       d="m 749.7301,305.78551 c -0.13947,0.0112 -0.24481,0.0648 -0.29321,0.12044 l -2.70392,4.2182 -2.3456,3.33444 -2.70391,3.33443 0.39093,8.91857 -0.19548,8.23564 2.34559,4.01738 2.31298,5.10202 1.3357,3.13355 -1.3357,2.0087 -1.56368,5.34311 0.19544,7.3518 -1.92209,4.21823 -3.09484,3.13356 0.94474,1.32571 2.34559,1.76766 2.11753,1.56677 3.09488,-1.12489 3.29031,-2.45054 6.77611,-0.20082 2.54106,2.20956 2.70393,0.24108 2.70393,0.68292 3.87673,-3.8165 4.4631,-9.56136 3.29033,-8.23561 3.29031,-6.02604 3.48582,-5.54398 1.92206,-4.25841 -1.53114,-3.77634 -1.1728,-5.34312 -2.50845,-1.12488 -2.86682,-2.41038 -2.37818,-2.69167 -3.09483,-2.45058 -2.11754,-0.88385 -6.18975,-5.34308 -4.07218,-1.80782 -3.87671,-0.6428 c 0,0 -1.73567,-0.88041 -2.70392,-1.32573 -0.84733,-0.38952 -3.77934,-1.32448 -4.75632,-1.24537 z"
       class="land departement dom departement973"
       label="Guyane"
       nodetypes="ccccccccccccccccccccccccccccccccccccccccsc"
       id="path41"
       inkscape:connector-curvature="0" />
    <text
       class="region-name"
       id="text4270-3-1-7-9-0-7-72"
       y="340.9754"
       x="720.31427"
       xml:space="preserve"><tspan
         id="tspan4387-9-1"
         y="340.9754"
         x="720.31427">Guyane</tspan></text>
  </g>
  <g
     class="region mayotte"
     id="mayotte"
     transform="matrix(0.84297132,0,0,0.84297132,-591.55468,-116.38724)">
    <g
       id="g4391"
       class="land departement dom mayotte"
       label="Mayotte">
      <path
         class="land-island"
         id="path5886"
         d="m 764.73138,444.55065 c -0.49783,-5.3e-4 -0.88427,0.0424 -1.12479,0.53403 -0.2923,0.59719 -0.84022,-0.0324 -1.17894,-0.13849 -0.65278,-0.20409 -1.13659,0.11818 -1.4019,0.72421 -0.10743,0.24577 -0.0459,0.46285 -0.11642,0.70824 -0.0961,0.33424 -0.44148,0.26085 -0.45695,-0.0527 -0.0547,-1.11302 0.0701,-2.28225 -1.21996,-2.60313 -1.34594,-0.33491 -1.89412,0.29767 -1.62711,1.57229 0.0457,0.21827 0.0881,0.44635 0.06,0.67036 -0.1803,-0.002 -0.37175,0.0354 -0.48606,0.1885 -0.19338,0.25982 -0.12658,0.62959 -0.34223,0.88113 -0.2197,0.25613 -0.86947,0.58384 -1.20699,0.60533 -0.61871,0.04 -0.58619,-0.9797 -0.84443,-1.35039 -0.25114,-0.36008 -0.90419,-0.59 -1.29364,-0.29271 -0.22886,0.17463 -0.14064,0.67835 -0.55681,0.52118 -0.21065,-0.43728 -0.16135,-1.09333 -0.31146,-1.58136 -0.15315,-0.49862 -0.87875,-0.70362 -1.36075,-0.70362 -0.52602,0 -0.8979,1.38709 -1.52576,1.73354 -0.16193,0.10744 -0.33348,-0.97524 -0.0871,-1.20006 0.48381,-0.44095 0.22716,-0.73495 0.26965,-1.4302 0.0428,-0.70392 0.73652,-2.76291 -0.78137,-2.34634 -0.41934,0.11525 -0.49288,0.56758 -0.90078,0.69447 -0.45145,0.14045 -1.07042,0.31365 -1.53065,0.12287 -0.38603,-0.15999 -0.24536,-0.63862 -0.85122,-0.55383 -0.66485,0.0928 -0.67337,-0.23895 -0.13928,-0.54815 0.43072,-0.24933 0.85648,-0.47465 1.34357,-0.59367 0.58764,-0.14377 0.74021,-0.60979 1.15861,-0.98835 0.64782,-0.58594 0.87771,-1.97565 0.57072,-2.78743 -0.13322,-0.35247 -0.22689,-0.84362 -0.67413,-0.89881 -0.31696,-0.0393 -1.44439,1.1472 -1.44439,0.12404 0,-0.66458 -0.14474,-0.59013 -0.6234,-0.94037 -0.44148,-0.32364 -0.57925,-0.91795 -0.73787,-1.41175 -0.13498,-0.4197 -0.0807,-1.10369 -0.47857,-1.37043 -0.3146,-0.21104 -0.96802,-0.2176 -0.85451,-0.75097 0.67284,-0.0856 1.42407,-0.20593 2.10148,-0.1926 0.27068,0.006 0.50452,0.16076 0.77508,0.17912 0.28799,0.0195 0.51081,-0.10412 0.78151,-0.1594 0.26832,-0.0551 0.91219,0.39298 1.02623,0.61674 0.13927,0.27383 0.0342,0.60272 0.06,0.89162 0.0379,0.42613 0.14045,0.82554 0.16155,1.25692 0.0277,0.5647 0.46246,0.82542 0.75713,1.25444 0.35366,0.51514 0.90339,0.43978 1.41108,0.6828 0.52485,0.25101 0.98217,0.46729 1.54504,0.62971 0.63494,0.18342 1.07957,0.7216 1.76276,0.76748 0.37896,0.0256 1.03463,-0.10587 1.31761,-0.39167 0.26531,-0.26781 0.89844,-0.87915 0.89149,-1.1771 -0.006,-0.26754 0.0221,-0.54661 -0.008,-0.8127 0.0906,-0.20134 0.2952,-0.0117 0.24275,-0.34737 -0.0984,-0.62919 -0.74308,-0.98769 -0.93053,-1.56339 -0.0623,-0.19065 0.0584,-0.39968 -0.17834,-0.52118 -0.20554,-0.10509 -0.42039,-0.0777 -0.47098,-0.37292 -0.11134,-0.6461 0.0156,-0.68032 -0.51134,-1.06306 -0.40909,-0.29676 -0.28261,-0.85976 -0.57126,-1.2319 -0.14748,-0.18987 -0.3712,-0.14631 -0.55589,-0.2699 -0.32038,-0.21458 -0.56273,-0.51801 -0.86396,-0.75568 -0.84652,-0.66731 -2.04917,-1.13331 -2.26363,-2.33335 -0.0807,-0.45105 -0.1051,-0.91205 -0.70638,-0.91402 -0.5723,-0.002 -1.24487,-0.38786 -1.57585,-0.85175 -0.18225,-0.25562 -0.76592,-0.48514 -0.60521,-0.90473 0.0768,-0.20147 0.39784,-0.16681 0.55042,-0.26427 0.22821,-0.14533 0.22557,-0.30697 0.31262,-0.53505 0.34525,-0.90537 2.53968,-0.51661 2.61754,-1.02177 0.0719,-0.46586 -0.33805,-0.49969 -0.68384,-0.56273 -0.47793,-0.0873 -0.83485,-0.39915 -1.35865,-0.45131 -0.57492,-0.0574 -0.27777,-0.70286 -0.0735,-1.0029 0.37921,-0.55669 0.38093,-1.261 0.38093,-1.90657 0,-0.97274 -1.42827,-1.57649 -0.81493,-2.76292 0.27605,-0.53401 0.91506,-0.0998 1.21354,-0.49508 0.61176,-0.81086 -0.92463,-0.4825 -1.19113,-0.50713 -0.50138,-0.0463 -0.68019,-0.71336 -0.63325,-1.12429 0.0551,-0.48028 0.47688,-0.6693 0.70456,-1.06307 0.15237,-0.26241 0.52144,-1.11615 0.4091,-1.40426 -0.21444,-0.55015 -0.44476,-0.83262 -0.96489,-0.41958 -1.01312,0.80246 -1.64648,-1.01535 -2.57822,-0.51739 -0.47922,0.2564 -0.96554,0.15685 -1.21969,-0.3771 -0.13205,-0.27777 -0.34041,-0.22861 -0.55382,-0.39482 -0.19378,-0.15139 -0.37856,-0.42248 -0.55277,-0.60338 -0.31787,-0.33004 -0.64988,-0.64045 -1.12768,-0.68462 -0.39822,-0.0367 -0.9856,0.54058 -1.33689,0.36231 -0.20893,-0.10645 -0.26216,-0.40727 -0.41959,-0.56339 -0.21038,-0.20854 -0.47766,-0.21641 -0.7305,-0.32928 -0.65973,-0.29492 0.29976,-1.06029 0.47856,-1.26977 0.54425,-0.63797 1.35041,-1.29677 1.63784,-2.02546 0.51083,-1.29571 -1.83091,-0.69903 -2.32076,-0.99344 -0.43205,-0.25969 1.12924,-1.46588 1.22088,-1.86292 0.10704,-0.46467 -0.1467,-0.98061 0.0822,-1.42352 0.27736,-0.53665 0.50675,-0.25982 0.96042,-0.1592 0.46797,0.10411 1.14421,0.14416 1.39051,-0.33897 0.134,-0.26308 0.50964,-0.9354 0.75082,-1.10487 0.2923,-0.20503 0.7334,-0.75215 0.36218,-1.1235 -0.57439,-0.57479 -0.28496,-0.46991 0.4458,-0.56822 0.32691,-0.0439 1.06988,0.0305 1.12139,-0.41738 0.0432,-0.37384 4.1e-4,-1.27487 0.32246,-1.52799 0.35169,-0.27632 0.61096,-0.6001 0.96226,-0.86763 0.16095,-0.12287 0.40255,-0.22755 0.51121,-0.40923 0.16272,-0.27213 -0.1338,-0.69013 0.34055,-0.74309 0.5048,-0.0568 0.53521,0.16272 0.92032,-0.3298 0.14357,-0.18343 1.02138,-1.09151 0.98835,-0.36925 -0.0156,0.35602 -0.89674,0.64557 -0.41881,1.00316 0.51974,0.38917 -0.1047,0.4547 -0.39481,0.52707 -0.82882,0.2071 -2.76475,0.9363 -1.28577,1.74861 0.46076,0.25312 0.94496,0.36559 1.44411,0.46861 0.81743,0.16995 -0.60494,0.68111 0.32416,0.85976 0.29494,0.0564 0.38316,-0.0156 0.54464,0.229 0.0793,0.11974 0.19378,0.39284 0.31735,0.46887 0.4707,0.28956 0.28667,0.69315 0.52301,1.13188 0.21169,0.39298 0.81689,0.68843 1.1927,0.90812 0.28837,0.16858 0.59748,0.32706 0.94154,0.32706 0.29166,2.5e-4 0.71283,-0.10099 0.88244,0.22702 0.17073,0.32953 -1.49431,0.87089 -0.96344,1.70444 0.27632,0.43388 0.82647,0.65461 1.03382,1.1611 0.17268,0.42262 -0.11408,1.30923 0.51345,1.2285 0.23477,-0.0301 0.53311,-0.16486 0.75673,-0.008 0.1805,0.12755 0.20646,0.24474 0.4652,0.25522 0.60705,0.0248 0.60416,-0.38551 1.12231,0.16467 1.15691,1.22823 1.7747,-0.64766 2.65386,-0.98743 0.56796,-0.21942 0.62539,-0.11173 0.98807,0.29547 0.2138,0.24013 0.544,0.86552 0.96228,0.68317 0.55524,-0.24221 0.97182,0.0836 1.46782,-0.0137 0.57781,-0.1131 0.79698,-0.0385 1.28538,0.27447 0.36021,0.23032 1.00185,-0.0752 1.42708,0.12463 0.17639,0.0826 0.47188,0.0758 0.59746,0.24891 0.0824,0.1133 -0.0195,0.27502 0.22782,0.27305 0.30555,-0.002 0.3745,-0.42443 0.539,0.0902 0.0576,0.1803 0.18674,0.21917 0.0678,0.37423 -0.16467,0.21511 0.33086,0.57086 0.43205,0.70601 0.32928,0.43937 0.90431,0.41263 1.41252,0.45879 0.39941,0.0361 0.79225,0.61213 0.97222,0.92752 0.15158,0.26609 0.37475,0.2531 0.54505,0.46074 0.23684,0.28811 0.60269,0.69013 0.728,1.04445 0.32495,0.91664 -1.67271,1.86356 -0.90562,2.98705 0.27828,0.40964 0.62721,0.57177 0.67624,1.14001 0.0707,0.81979 -0.73273,0.12404 -1.05088,0.31303 -0.69603,0.41263 -2.11025,0.91048 -2.26269,1.82201 -0.15002,0.89541 -0.58438,0.82803 -1.14841,1.35328 -0.32862,0.30554 -1.1379,0.67295 -1.1307,1.22678 0.008,0.66719 -0.0266,0.81899 -0.59249,1.21144 -0.47555,0.3294 -0.8313,0.30293 -1.06121,0.88244 -0.0867,0.2185 0.0729,0.34094 0.20461,0.47647 0.26295,0.27067 -0.006,0.29611 -0.0748,0.56311 -0.1383,0.52931 -0.39665,1.04656 -0.041,1.56878 0.15783,0.23202 0.18987,0.40962 0.27908,0.66837 0.0658,0.19299 -0.0895,0.38223 0.0504,0.54294 0.14436,0.16662 0.29299,0.38944 0.4626,0.52944 0.16291,0.134 0.55079,0.0811 0.64872,0.27814 0.29007,0.5841 0.004,0.83171 0.79512,0.94889 0.27816,0.0412 1.28997,0.45538 0.55448,0.55121 -0.17053,0.55394 0.22664,1.26151 0.82619,1.26243 0.18107,2.7e-4 0.3804,-0.0934 0.55985,-0.0285 0.27121,0.0981 -0.2547,0.42718 -0.283,0.50596 -0.20882,0.5824 -0.008,1.29323 -0.50309,1.74743 -0.44305,0.40689 -1.0894,0.67888 -1.61295,0.98323 -0.40673,0.23623 -0.92476,0.70115 -1.17028,1.11354 -0.25849,0.43401 0.0412,1.64754 0.083,2.15798 0.0197,0.2421 0.94419,1.30753 -0.1338,0.86513 -0.91627,-0.37595 -1.35184,-0.0584 -1.73839,0.69917 -0.24185,0.47254 -0.87667,0.38919 -1.29587,0.7334 -0.36874,0.30267 -0.17561,1.30098 0.0117,1.66931 0.35143,0.68857 0.13381,0.7954 -0.61961,0.7541 -0.72777,-0.04 -0.9177,1.06096 -0.70966,1.58661 0.24577,0.62039 0.91494,0.76996 0.96409,1.50492 0.0441,0.6621 0.69341,0.92883 1.23727,1.17697 0.35391,0.16135 0.69223,0.26492 1.00852,0.5044 0.20593,0.15666 0.37712,0.4239 0.64728,0.46102 0.3138,0.0428 0.67061,-0.0953 0.94521,0.11232 0.45815,0.34656 0.12189,0.48918 0.19085,0.93078"
         inkscape:connector-curvature="0" />
      <path
         class="land-island"
         id="path5890"
         d="m 779.67258,414.78702 c -0.0553,0.1213 -0.28838,0.0834 -0.39704,0.117 -0.30149,0.093 -0.57361,0.12287 -0.79028,0.37449 -0.0902,0.1047 -0.11662,0.2176 -0.15881,0.33977 -0.0733,0.21102 -0.17912,0.40647 -0.26978,0.60519 -0.11115,0.24355 -0.0207,0.58881 -0.25663,0.77285 -0.11174,0.0875 -0.23503,0.083 -0.37765,0.0983 -0.218,0.0232 -0.23175,0.0481 -0.37425,-0.11877 -0.11603,-0.13634 -0.17658,-0.1799 -0.18908,-0.36557 -0.0117,-0.16975 -2.6e-4,-0.34489 0,-0.51528 1.3e-4,-0.1635 0.0195,-0.25496 -0.1092,-0.36651 -0.12052,-0.1049 -0.26661,-0.17776 -0.39612,-0.27723 -0.11682,-0.0899 -0.27068,-0.19025 -0.35876,-0.30857 -0.10236,-0.13771 -0.13556,-0.32717 -0.21524,-0.47528 -0.19583,-0.36362 -0.28457,-0.67403 -0.66562,-0.83028 -0.16467,-0.0676 -0.27788,-0.19805 -0.43402,-0.27867 -0.21299,-0.10978 -0.4104,-0.17385 -0.59732,-0.32809 -0.3226,-0.2653 -0.65043,-0.54386 -0.58568,-1.01247 0.33229,-0.15998 0.45604,0.12775 0.71544,0.2598 0.24591,0.12501 0.48067,0.25378 0.70429,0.407 0.28262,0.19358 0.5491,0.24173 0.59551,-0.15744 0.0176,-0.15822 -0.0268,-0.28865 -0.0404,-0.43703 -0.008,-0.0742 0.0209,-0.16877 0.002,-0.23974 -0.0195,-0.0695 -0.0819,-0.10665 -0.11213,-0.16525 -0.0496,-0.0961 -0.10177,-0.28142 -0.0891,-0.38759 0.0213,-0.17873 0.23214,-0.18791 0.35928,-0.2872 0.12209,-0.0955 0.19124,-0.23871 0.28563,-0.34685 0.10548,-0.1213 0.25286,-0.22362 0.38878,-0.3083 0.14123,-0.0877 0.30267,-0.0986 0.43257,-0.20592 0.14162,-0.1174 0.23437,-0.20804 0.36741,-0.36087 0.0826,-0.0945 0.19436,-0.16604 0.2775,-0.26478 0.12306,-0.14572 0.18342,-0.31721 0.27841,-0.47412 0.0887,-0.14651 0.24277,-0.38316 0.39443,-0.47778 0.25404,-0.15861 0.36571,0.0764 0.47557,0.259 0.0539,0.0895 0.12834,0.16858 0.17951,0.25445 0.11467,0.19279 0.13459,0.2738 0.36652,0.27027 0.28746,-0.004 0.43138,0.1379 0.48434,0.39626 0.052,0.2539 0.0406,0.49627 0.0695,0.7541 0.0137,0.11329 0.0676,0.20659 0.1297,0.30844 0.0945,0.1549 0.0863,0.22938 0.10705,0.40595 0.0252,0.21418 0.0711,0.46258 0.19025,0.64008 0.0787,0.11701 0.19624,0.13322 0.27723,0.23985 0.0752,0.099 0.0596,0.25379 0.0437,0.38054 -0.42771,-0.0137 -0.62932,0.42535 -0.62812,0.7984 10e-4,0.44371 0.18029,0.83552 0.11192,1.30086 -0.0699,0.0336 -0.14845,0.0654 -0.23094,0.0467"
         inkscape:connector-curvature="0" />
    </g>
    <text
       class="region-name"
       id="text4270-3-1-7-9-0-7-1"
       y="422.75165"
       x="717.45074"
       xml:space="preserve"><tspan
         id="tspan4387-9-2"
         y="422.75165"
         x="717.45074">Mayotte</tspan></text>
  </g>
  <g
     class="region reunion"
     id="reunion"
     transform="matrix(0.84297132,0,0,0.84297132,-591.55468,-116.38724)">
    <path
       d="m 758.16759,474.91131 -4.25589,0.10041 -1.54511,0.936 -1.76202,1.67139 -0.32525,0.36773 -1.21987,0 -2.57522,1.20341 -1.11137,1.20344 -3.55111,0.63511 -0.32525,2.30655 -0.9759,4.81368 c 0,0 -1.35917,1.1184 -1.76194,1.30371 -0.40292,0.18528 -2.65657,1.67141 -2.65657,1.67141 l -0.4066,5.11451 0.97589,3.04197 2.6565,3.87769 1.27407,1.77169 1.0301,-0.26741 -0.6235,0.3677 0.0813,6.95307 2.65649,4.07824 2.73791,3.14229 4.82512,3.50996 0.32532,-0.234 -0.37953,0.3343 5.71965,4.24537 4.41852,1.97228 4.74383,1.00282 3.79501,1.67144 2.41259,0.56827 c 0,0 3.71826,-0.93598 4.20168,-0.93598 0.48343,0 4.33717,-0.936 4.33717,-0.936 l 3.95771,-1.57114 2.65656,-2.97513 -0.24397,-5.28163 0.48787,-3.30941 1.05724,-1.87198 1.76202,-2.87484 0.89455,-3.61023 -0.24398,-3.50999 -1.87043,-1.30371 -2.41259,-1.37055 -1.11138,-0.10041 -1.78916,-3.14223 c -0.40284,-0.37043 -2.57668,-3.34765 -2.73784,-3.81083 -0.16117,-0.46319 -1.59933,-4.44597 -1.59933,-4.44597 l -0.48794,-6.21765 -2.73784,-3.24253 -3.22579,-2.20629 c 0,3e-5 -2.57974,-1.84609 -3.06316,-1.93885 -0.48343,-0.0925 -4.74683,-1.20341 -5.06909,-1.20341 -0.32233,0 -3.47052,0.27518 -3.55111,0.36771 l -0.40653,-0.2006 -2.98188,-1.67143 z"
       class="land departement dom departement974"
       label="La Reunion"
       nodetypes="cccccccccccsccccccccccccccccccscccccccccccccsccccssccc"
       id="path210"
       inkscape:connector-curvature="0" />
    <text
       class="region-name"
       id="text4270-3-1-7-9-0-7-5"
       y="505.74493"
       x="714.60663"
       xml:space="preserve"><tspan
         id="tspan4387-9-5"
         y="505.74493"
         x="714.60663">Réunion</tspan></text>
  </g>
  <g
     class="region s-p-et-miquelon"
     id="s-p-et-miquelon"
     transform="translate(0,-16.359335)">
    <path
       d="m 48.663766,395.47308 0,-0.60871 -0.405753,-2.2319 -1.62321,-4.05804 -1.623211,-2.43482 -0.811605,-0.81161 -0.811605,-0.20289 -0.811605,-0.4058 -0.608729,-0.60872 -0.405754,-2.63772 -0.405851,-0.4058 0.202877,-1.62321 0.405851,-1.01452 -0.202877,-1.6232 -0.608728,-3.04352 -1.01458,-1.01452 -0.202876,-0.6087 1.62321,-2.23191 0.405851,-0.4058 1.217359,0 1.62321,-0.40581 1.62321,-1.01451 0.811606,0 0.202974,1.21741 -0.608727,0.20291 -1.420334,0.60869 -0.608729,0.60871 -1.826087,0.81161 -0.405753,0.6087 0.60863,1.42031 1.217457,0.40581 -0.405851,0.4058 -1.623211,0 -0.202877,0.4058 0.608729,2.84062 0.202876,-0.4058 1.420334,-2.43482 1.014482,-0.8116 1.826087,-0.2029 1.826185,0.6087 1.217359,1.21741 1.62321,0.8116 2.637691,1.01452 2.840668,0.4058 1.014481,0.8116 0.202975,1.82612 0.608631,0.6087 -0.202877,0.8116 -1.62321,2.84064 -1.826088,2.84061 -1.420333,0.2029 -1.217457,0.81161 -0.811605,0.2029 -0.202876,-0.2029 1.217457,-0.81161 0.405753,-0.6087 -0.608729,-1.21741 -0.811605,0 -1.420235,0.60871 -0.608728,0.2029 -2.637693,-0.81161 -1.01458,-0.20291 -0.202876,0.40581 0.811605,1.42031 1.217457,1.82611 1.014481,0.20291 1.62321,-0.81161 1.014483,0.6087 -1.420334,2.63773 -0.60863,3.65224 -0.202974,0.8116 0.405851,1.62321 0.405753,0.6087 2.029062,0.4058 2.028963,1.21742 1.01458,-0.60871 1.217359,0 1.217457,1.01451 0.608728,0.2029 0.811605,-0.2029 0.202877,1.21741 1.014483,1.42031 0,1.42031 -0.405754,1.01451 -1.217457,1.01451 -3.449298,2.02901 -0.608728,0.20291 -1.014482,0.4058 -3.24642,1.82612 -1.217457,1.42031 -0.405753,0.2029 -0.811605,0 -1.217457,1.0145 -0.608729,0.2029 -0.202876,-1.4203 -0.811605,-0.2029 -0.811606,-0.60872 -1.217359,0.81162 -0.608727,-0.2029 0.202876,-0.60872 -0.405753,-0.4058 0.60863,-0.8116 -0.202877,-1.82612 -0.405753,-0.40581 -2.029063,0 -0.608727,0.60872 -0.405754,0 -0.405852,-1.82612 1.826186,-1.62321 1.62321,-1.21741 2.028963,-0.60871 0.811606,0 1.014481,-0.6087 0.811606,-1.01451 0.405851,-0.8116 0,-1.21742 1.014482,-0.8116 0.202877,-0.60871 0,-3.24643"
       id="path2426-5"
       class="land"
       inkscape:connector-curvature="0" />
    <path
       d="m 62.664028,418.19807 -0.405852,-0.2029 -0.405753,-0.20291 0,-0.6087 1.217358,-0.6087 0,-0.40581 -0.405753,0 -0.811605,0.40581 -1.62321,0 0,-0.40581 1.014481,-0.4058 3.24642,-4.05803 1.623212,-1.01451 1.014481,-0.6087 1.826186,-0.20291 1.217358,0.20291 0.405852,0.20289 0.405753,0.81161 -0.405753,1.01451 -1.217457,1.21741 -0.811606,1.62321 0.202877,0.20291 0.811606,-0.60871 0.811604,0.4058 0.202976,0.6087 0.811604,0.20291 0.202877,0.20289 -0.202877,0.60872 -1.217456,0.2029 -1.623211,-0.2029 -1.420333,0.6087 -0.811605,0 -0.202876,-1.01451 -1.623212,0.60871 -1.014481,0.2029 -0.811605,1.21741"
       id="path2428"
       class="land"
       inkscape:connector-curvature="0" />
    <text
       class="region-name"
       id="s-p-et-miquelon-text"
       y="397.24332"
       x="8.7499275"
       xml:space="preserve"
       style="font-size:13.04310226px"><tspan
         id="tspan103"
         y="397.24332"
         x="8.7499275">St-Pierre et Miquelon</tspan></text>
  </g>
  <g
     class="region polynesie"
     id="polynesie"
     transform="matrix(0.64083106,0,0,0.64083106,-1.7148528,405.42781)">
    <path
       class="land"
       id="path4840"
       d="m 106,15 c 1.7,0.3 3.3,0.7 5,1 0.3,1 0.7,2 1,3 -0.3,0 -0.7,0 -1,0 -1.4,1.6 -2.2,1.7 -5,2 -0.1,-2.1 -1,-3.4 -1,-4 0.3,0 0.7,0 1,0 0,-0.7 0,-1.3 0,-2 z"
       inkscape:connector-curvature="0"
       style="clip-rule:evenodd;fill-rule:evenodd" />
    <path
       class="land"
       id="path4842"
       d="m 116,17 c 1.3,0 2.7,0 4,0 0,0.7 0,1.3 0,2 -1,0.3 -2,0.7 -3,1 0,-0.3 0,-0.7 0,-1 -1.1,-1.1 -0.4,0 -1,-2 z"
       inkscape:connector-curvature="0"
       style="clip-rule:evenodd;fill-rule:evenodd" />
    <path
       class="land"
       id="path4844"
       d="m 124,25 c 0,0.7 0,1.3 0,2 -1.1,-0.8 -0.1,0.1 -1,-1 -1.1,-0.8 -0.1,0.1 -1,-1 0.7,0 1.3,0 2,0 z"
       inkscape:connector-curvature="0"
       style="clip-rule:evenodd;fill-rule:evenodd" />
    <path
       class="land"
       id="path4846"
       d="m 107,26 c 2.4,0.2 2.5,0.4 4,1 -0.6,2 0.1,0.9 -1,2 0,0.3 0,0.7 0,1 -2,-0.6 -0.9,0.1 -2,-1 -0.3,0 -0.7,0 -1,0 0,-1 0,-2 0,-3 z"
       inkscape:connector-curvature="0"
       style="clip-rule:evenodd;fill-rule:evenodd" />
    <path
       class="land"
       id="path4848"
       d="m 122,31 c -0.6,2.4 -0.3,1.9 -2,3 0,0.3 0,0.7 0,1 -1.4,0.2 0.3,-0.4 -1,-1 -0.3,0 -0.7,0 -1,0 0,-0.3 0,-0.7 0,-1 0.3,0 0.7,0 1,0 -0.3,-1 -0.7,-2 -1,-3 2.6,-1.4 1.7,-1.8 6,-2 0,0.3 0,0.7 0,1 1,0 2,0 3,0 0,0.3 0,0.7 0,1 -0.7,0 -1.3,0 -2,0 0,0.3 0,0.7 0,1 -1,0 -2,0 -3,0 z"
       inkscape:connector-curvature="0"
       style="clip-rule:evenodd;fill-rule:evenodd" />
    <path
       class="land"
       id="path4850"
       d="m 125,32 c 1.1,1.1 0.4,0 1,2 -0.3,0 -0.7,0 -1,0 0,-0.7 0,-1.3 0,-2 z"
       inkscape:connector-curvature="0"
       style="clip-rule:evenodd;fill-rule:evenodd" />
    <path
       class="land"
       id="path4852"
       d="m 128,36 c 0.7,0 1.3,0 2,0 0,1.3 0,2.7 0,4 -0.7,0 -1.3,0 -2,0 0,-1.3 0,-2.7 0,-4 z"
       inkscape:connector-curvature="0"
       style="clip-rule:evenodd;fill-rule:evenodd" />
    <path
       class="land"
       id="path4854"
       d="m 80,51 c -0.9,3.3 -2.3,2.9 -4,5 -2.6,-0.5 -4.4,-1 -8,-1 0,-0.7 0,-1.3 0,-2 1.3,-0.3 2.7,-0.7 4,-1 0.1,0 0.4,1.5 2,1 0.3,-0.7 0.7,-1.3 1,-2 1.7,0 3.3,0 5,0 z"
       inkscape:connector-curvature="0"
       style="clip-rule:evenodd;fill-rule:evenodd" />
    <path
       class="land"
       id="path4856"
       d="m 90,51 c 0,0.7 0,1.3 0,2 -1.3,0.3 -2.7,0.7 -4,1 0,0.7 0,1.3 0,2 -1.3,0.3 -2.7,0.7 -4,1 0.9,-3.9 3.2,-5.9 8,-6 z"
       inkscape:connector-curvature="0"
       style="clip-rule:evenodd;fill-rule:evenodd" />
    <path
       class="land"
       id="path4858"
       d="m 56,56 c 0,0.7 0,1.3 0,2 2,0 4,0 6,0 0.9,1.8 1.4,1.6 2,4 -8.3,0.1 -9.8,-2.6 -17,-3 0,-1 0,-2 0,-3 1.7,0.3 3.3,0.7 5,1 0.7,-0.2 0.4,-2.2 2,-2 0,0.3 0,0.7 0,1 0.7,0 1.3,0 2,0 z"
       inkscape:connector-curvature="0"
       style="clip-rule:evenodd;fill-rule:evenodd" />
    <path
       class="land"
       id="path4860"
       d="m 128,60 c -1,0 -2,0 -3,0 0,-0.3 0,-0.7 0,-1 -1.1,-1.1 -0.4,0 -1,-2 0.3,0 0.7,0 1,0 0,-0.3 0,-0.7 0,-1 2,0.6 0.9,-0.1 2,1 0.3,0 0.7,0 1,0 0,1 0,2 0,3 z"
       inkscape:connector-curvature="0"
       style="clip-rule:evenodd;fill-rule:evenodd" />
    <path
       class="land"
       id="path4862"
       d="m 83,58 c 1,-0.3 2,-0.7 3,-1 0,0.3 0,0.7 0,1 0.3,0 0.7,0 1,0 0.9,1.8 -0.7,3.1 -1,4 -0.7,-0.3 -1.3,-0.7 -2,-1 -0.3,-1 -0.7,-2 -1,-3 z"
       inkscape:connector-curvature="0"
       style="clip-rule:evenodd;fill-rule:evenodd" />
    <path
       class="land"
       id="path4864"
       d="m 109,63 c 0,-1 0,-2 0,-3 1.3,-1 2.7,-2 4,-3 0,0.7 0,1.3 0,2 -0.3,0 -0.7,0 -1,0 0,1 0,2 0,3 -0.3,0 -0.7,0 -1,0 -1.1,1.1 0,0.4 -2,1 z"
       inkscape:connector-curvature="0"
       style="clip-rule:evenodd;fill-rule:evenodd" />
    <path
       class="land"
       id="path4866"
       d="m 76,61 c 0,1 0,2 0,3 1,0.3 2,0.7 3,1 -0.6,2 0.1,0.9 -1,2 0,0.3 0,0.7 0,1 -2,-0.6 -0.9,0.1 -2,-1 -1.1,-1.1 -0.4,0 -1,-2 -0.7,0 -1.3,0 -2,0 0,1 0,2 0,3 -1.7,0 -3.3,0 -5,0 -0.3,-1 -0.7,-2 -1,-3 0.3,0 0.7,0 1,0 -0.3,-1.3 -0.7,-2.7 -1,-4 0.3,0 0.7,0 1,0 0,-0.3 0,-0.7 0,-1 2.6,0.5 4.4,1 8,1 z"
       inkscape:connector-curvature="0"
       style="clip-rule:evenodd;fill-rule:evenodd" />
    <path
       class="land"
       id="path4868"
       d="m 92,61 c -0.2,2.4 -0.4,2.5 -1,4 -0.7,0 -1.3,0 -2,0 -0.7,-1 -1.3,-2 -2,-3 1.6,-0.6 2.4,-0.9 5,-1 z"
       inkscape:connector-curvature="0"
       style="clip-rule:evenodd;fill-rule:evenodd" />
    <path
       class="land"
       id="path4870"
       d="m 99,62 c 1.3,0 2.7,0 4,0 -0.6,3.8 -0.5,3.5 -1,7 3.1,-1 1,-0.9 4,0 -0.6,2 0.1,0.9 -1,2 -0.6,2 0.1,0.9 -1,2 0,-0.3 0,-0.7 0,-1 -1,0 -2,0 -3,0 0,-1 0,-2 0,-3 -2,-0.7 -4,-1.3 -6,-2 0,-1 0,-2 0,-3 1.7,0.3 3.3,0.7 5,1 0,-0.3 0,-0.7 0,-1 -1.1,-1.1 -0.4,0 -1,-2 z"
       inkscape:connector-curvature="0"
       style="clip-rule:evenodd;fill-rule:evenodd" />
    <path
       class="land"
       id="path4872"
       d="m 106,68 c 0.2,-2.4 0.4,-2.5 1,-4 1,0.3 2,0.7 3,1 -0.3,0.7 -0.7,1.3 -1,2 -1,0.3 -2,0.7 -3,1 z"
       inkscape:connector-curvature="0"
       style="clip-rule:evenodd;fill-rule:evenodd" />
    <path
       class="land"
       id="path4874"
       d="m 12,65 c 0.7,0 1.3,0 2,0 0,0.3 0,0.7 0,1 -2,-0.6 -0.9,0.1 -2,-1 z"
       inkscape:connector-curvature="0"
       style="clip-rule:evenodd;fill-rule:evenodd" />
    <path
       class="land"
       id="path4876"
       d="m 90,66 c 1,0.3 2,0.7 3,1 0,0.3 0,0.7 0,1 -0.3,0 -0.7,0 -1,0 -1.1,1.1 0,0.4 -2,1 0,-1 0,-2 0,-3 z"
       inkscape:connector-curvature="0"
       style="clip-rule:evenodd;fill-rule:evenodd" />
    <path
       class="land"
       id="path4878"
       d="m 83,70 c 0,0.7 0,1.3 0,2 2.4,0.2 2.5,0.4 4,1 -0.3,0.7 -0.7,1.3 -1,2 -1.5,0.6 -1.6,0.8 -4,1 0,-0.3 0,-0.7 0,-1 -0.3,0 -0.7,0 -1,0 0,-1 0,-2 0,-3 -1,0 -2,0 -3,0 0,-0.3 0,-0.7 0,-1 -1.1,-1.1 -0.4,0 -1,-2 1,-0.3 2,-0.7 3,-1 0.3,0.7 0.7,1.3 1,2 0.7,0 1.3,0 2,0 z"
       inkscape:connector-curvature="0"
       style="clip-rule:evenodd;fill-rule:evenodd" />
    <path
       class="land"
       id="path4880"
       d="m 122,68 c 0.8,0.1 3.8,-0.7 3,1 -2.4,0.9 -1.3,0.9 -3,-1 z"
       inkscape:connector-curvature="0"
       style="clip-rule:evenodd;fill-rule:evenodd" />
    <path
       class="land"
       id="path4882"
       d="m 17,69 c 0.7,0 1.3,0 2,0 0,0.7 0,1.3 0,2 -0.7,0 -1.3,0 -2,0 0,-0.7 0,-1.3 0,-2 z"
       inkscape:connector-curvature="0"
       style="clip-rule:evenodd;fill-rule:evenodd" />
    <path
       class="land"
       id="path4884"
       d="m 22,77 c 0,-2 0,-4 0,-6 0.3,0 0.7,0 1,0 0,0.3 0,0.7 0,1 1,0.8 1,1.2 2,2 -0.6,2 0.1,0.9 -1,2 -1.1,1.1 0,0.4 -2,1 z"
       inkscape:connector-curvature="0"
       style="clip-rule:evenodd;fill-rule:evenodd" />
    <path
       class="land"
       id="path4886"
       d="m 28,71 c 1.1,1.1 0.4,0 1,2 -0.3,0 -0.7,0 -1,0 0,-0.7 0,-1.3 0,-2 z"
       inkscape:connector-curvature="0"
       style="clip-rule:evenodd;fill-rule:evenodd" />
    <path
       class="land"
       id="path4888"
       d="m 110,73 c 1.2,1.1 1.2,1.5 2,3 -0.3,0 -0.7,0 -1,0 0,0.3 0,0.7 0,1 -0.3,0 -0.7,0 -1,0 0,-0.3 0,-0.7 0,-1 -0.9,-1.1 -0.8,0.4 -1,-1 0.3,-0.7 0.7,-1.3 1,-2 z"
       inkscape:connector-curvature="0"
       style="clip-rule:evenodd;fill-rule:evenodd" />
    <path
       class="land"
       id="path4890"
       d="m 88,74 c 2.8,0.7 2.2,0.3 3,3 -1,0 -2,0 -3,0 0,-1 0,-2 0,-3 z"
       inkscape:connector-curvature="0"
       style="clip-rule:evenodd;fill-rule:evenodd" />
    <path
       class="land"
       id="path4892"
       d="m 36,76 c 1,0 2,0 3,0 0,1 0,2 0,3 -1,0 -2,0 -3,0 0,-1 0,-2 0,-3 z"
       inkscape:connector-curvature="0"
       style="clip-rule:evenodd;fill-rule:evenodd" />
    <path
       class="land"
       id="path4894"
       d="m 120,83 c 0,0.7 0,1.3 0,2 -1.3,0.3 -2.7,0.7 -4,1 0,-0.3 0,-0.7 0,-1 -2,-1.1 -2.3,-1.4 -3,-4 0.7,0 1.3,0 2,0 -0.3,-1.3 -0.7,-2.7 -1,-4 0.3,0 0.7,0 1,0 0,-0.3 0,-0.7 0,-1 2,0.6 0.9,-0.1 2,1 0.3,0 0.7,0 1,0 -0.6,2.4 -1,2.2 -2,4 0.3,0 0.7,0 1,0 1.1,1.7 0.6,1.4 3,2 z"
       inkscape:connector-curvature="0"
       style="clip-rule:evenodd;fill-rule:evenodd" />
    <path
       class="land"
       id="path4896"
       d="m 40,77 c 1.7,0 3.3,0 5,0 0.3,1 0.7,2 1,3 1,0 2,0 3,0 0,0.3 0,0.7 0,1 1.1,1.1 0.4,0 1,2 -3,0 -6,0 -9,0 -0.3,-2 -0.7,-4 -1,-6 z"
       inkscape:connector-curvature="0"
       style="clip-rule:evenodd;fill-rule:evenodd" />
    <path
       class="land"
       id="path4898"
       d="m 82,80 c 0.3,-1 0.7,-2 1,-3 1,0.3 2,0.7 3,1 0,0.3 0,0.7 0,1 -0.3,0 -0.7,0 -1,0 0,0.3 0,0.7 0,1 -1,0 -2,0 -3,0 z"
       inkscape:connector-curvature="0"
       style="clip-rule:evenodd;fill-rule:evenodd" />
    <path
       class="land"
       id="path4900"
       d="m 101,80 c 1,0.3 2,0.7 3,1 0,0.7 0,1.3 0,2 -0.3,0 -0.7,0 -1,0 -1.1,-1.1 0,-0.4 -2,-1 0,-0.7 0,-1.3 0,-2 z"
       inkscape:connector-curvature="0"
       style="clip-rule:evenodd;fill-rule:evenodd" />
    <path
       class="land"
       id="path4902"
       d="m 130,83 c 1.1,1.1 0.4,0 1,2 -0.3,0 -0.7,0 -1,0 0,-0.7 0,-1.3 0,-2 z"
       inkscape:connector-curvature="0"
       style="clip-rule:evenodd;fill-rule:evenodd" />
    <path
       class="land"
       id="path4904"
       d="m 131,86 c 1.1,1.1 0.4,0 1,2 -0.3,0 -0.7,0 -1,0 0,-0.7 0,-1.3 0,-2 z"
       inkscape:connector-curvature="0"
       style="clip-rule:evenodd;fill-rule:evenodd" />
    <path
       class="land"
       id="path4906"
       d="m 110,88 c 0.7,0 1.3,0 2,0 0,0.3 0,0.7 0,1 -2,-0.6 -0.9,0.1 -2,-1 z"
       inkscape:connector-curvature="0"
       style="clip-rule:evenodd;fill-rule:evenodd" />
    <path
       class="land"
       id="path4908"
       d="m 128,89 c 0.7,0 1.3,0 2,0 0,0.7 0,1.3 0,2 -0.7,0 -1.3,0 -2,0 0,-0.7 0,-1.3 0,-2 z"
       inkscape:connector-curvature="0"
       style="clip-rule:evenodd;fill-rule:evenodd" />
    <path
       class="land"
       id="path4910"
       d="m 118,91 c 1.1,1.1 0.4,0 1,2 -0.3,0 -0.7,0 -1,0 0,-0.7 0,-1.3 0,-2 z"
       inkscape:connector-curvature="0"
       style="clip-rule:evenodd;fill-rule:evenodd" />
    <path
       class="land"
       id="path4912"
       d="m 155,98 c -0.7,0 -1.3,0 -2,0 0,-0.3 0,-0.7 0,-1 0.3,0 0.7,0 1,0 0,-0.3 0,-0.7 0,-1 1.1,1.1 0.4,0 1,2 z"
       inkscape:connector-curvature="0"
       style="clip-rule:evenodd;fill-rule:evenodd" />
    <path
       class="land"
       id="path4914"
       d="m 130,101 c 1.1,1.1 0.4,0 1,2 -0.3,0 -0.7,0 -1,0 0,-0.7 0,-1.3 0,-2 z"
       inkscape:connector-curvature="0"
       style="clip-rule:evenodd;fill-rule:evenodd" />
    <path
       class="land"
       id="path4916"
       d="m 134,101 c 1.1,1.1 0.4,0 1,2 -0.3,0 -0.7,0 -1,0 0,-0.7 0,-1.3 0,-2 z"
       inkscape:connector-curvature="0"
       style="clip-rule:evenodd;fill-rule:evenodd" />
    <path
       class="land"
       id="path4918"
       d="m 145,101 c 2.4,0.2 2.5,0.4 4,1 0,0.3 0,0.7 0,1 -3,-0.3 -2.7,-0.1 -4,-2 z"
       inkscape:connector-curvature="0"
       style="clip-rule:evenodd;fill-rule:evenodd" />
    <path
       class="land"
       id="path4920"
       d="m 39,102 c 0,1.3 0,2.7 0,4 -1.3,0 -2.7,0 -4,0 0,-1 0,-2 0,-3 0.3,0 0.7,0 1,0 0,-0.3 0,-0.7 0,-1 1,0 2,0 3,0 z"
       inkscape:connector-curvature="0"
       style="clip-rule:evenodd;fill-rule:evenodd" />
    <path
       class="land"
       id="path4922"
       d="m 167,102 c 1.3,0 2.7,0 4,0 0,0.3 0,0.7 0,1 -1.3,0 -2.7,0 -4,0 0,-0.3 0,-0.7 0,-1 z"
       inkscape:connector-curvature="0"
       style="clip-rule:evenodd;fill-rule:evenodd" />
    <path
       class="land"
       id="path4924"
       d="m 149,103 c 1,0.3 2,0.7 3,1 0,0.3 0,0.7 0,1 -2.4,-0.6 -1.9,-0.3 -3,-2 z"
       inkscape:connector-curvature="0"
       style="clip-rule:evenodd;fill-rule:evenodd" />
    <path
       class="land"
       id="path4926"
       d="m 29,106 c 1,0 2,0 3,0 -0.3,1 -0.7,2 -1,3 -1.1,-0.8 -0.1,0.1 -1,-1 -1.1,-1.1 -0.4,0 -1,-2 z"
       inkscape:connector-curvature="0"
       style="clip-rule:evenodd;fill-rule:evenodd" />
    <path
       class="land"
       id="path4928"
       d="m 123,106 c 1.1,1.1 0.4,0 1,2 -0.3,0 -0.7,0 -1,0 0,-0.7 0,-1.3 0,-2 z"
       inkscape:connector-curvature="0"
       style="clip-rule:evenodd;fill-rule:evenodd" />
    <path
       class="land"
       id="path4930"
       d="m 130,108 c 1,0.7 2,1.3 3,2 0,0.3 0,0.7 0,1 -0.7,0 -1.3,0 -2,0 0,-0.3 0,-0.7 0,-1 -1.1,-1.1 -0.4,0 -1,-2 z"
       inkscape:connector-curvature="0"
       style="clip-rule:evenodd;fill-rule:evenodd" />
    <path
       class="land"
       id="path4932"
       d="m 158,110 c 1.3,0 2.7,0 4,0 0.3,1 0.7,2 1,3 -0.3,0 -0.7,0 -1,0 0,0.3 0,0.7 0,1 -1.3,0 -2.7,0 -4,0 0,-0.3 0,-0.7 0,-1 -0.3,0 -0.7,0 -1,0 0.3,-1 0.7,-2 1,-3 z"
       inkscape:connector-curvature="0"
       style="clip-rule:evenodd;fill-rule:evenodd" />
    <path
       class="land"
       id="path4934"
       d="m 49,111 c 1,0 2,0 3,0 0.3,0.7 0.7,1.3 1,2 0.3,0 0.7,0 1,0 0.2,1.4 -0.4,-0.3 -1,1 0,0.3 0,0.7 0,1 -1.3,0 -2.7,0 -4,0 0,-1.3 0,-2.7 0,-4 z"
       inkscape:connector-curvature="0"
       style="clip-rule:evenodd;fill-rule:evenodd" />
    <path
       class="land"
       id="path4936"
       d="m 141,112 c 1.1,1.1 0.4,0 1,2 -0.3,0 -0.7,0 -1,0 0,-0.7 0,-1.3 0,-2 z"
       inkscape:connector-curvature="0"
       style="clip-rule:evenodd;fill-rule:evenodd" />
    <path
       class="land"
       id="path4938"
       d="m 166,112 c 1.1,1.1 0.4,0 1,2 -0.3,0 -0.7,0 -1,0 0,-0.7 0,-1.3 0,-2 z"
       inkscape:connector-curvature="0"
       style="clip-rule:evenodd;fill-rule:evenodd" />
    <path
       class="land"
       id="path4940"
       d="m 83,114 c 1,0 2,0 3,0 0,1 0,2 0,3 -2.8,-0.7 -2.2,-0.3 -3,-3 z"
       inkscape:connector-curvature="0"
       style="clip-rule:evenodd;fill-rule:evenodd" />
    <path
       class="land"
       id="path4942"
       d="m 61,117 c 1,0 2,0 3,0 0,0.7 0,1.3 0,2 -1,0 -2,0 -3,0 0,-0.7 0,-1.3 0,-2 z"
       inkscape:connector-curvature="0"
       style="clip-rule:evenodd;fill-rule:evenodd" />
    <text
       class="region-name"
       id="text158"
       y="76.622871"
       x="12.823917"
       xml:space="preserve"
       style="font-size:19.97467613px"><tspan
         id="tspan160"
         y="76.622871"
         x="12.823917">Polynésie Française</tspan></text>
  </g>
  <path
     style="fill:none;fill-rule:evenodd;stroke:#cccccc;stroke-width:1px;stroke-linecap:butt;stroke-linejoin:miter;stroke-opacity:1"
     d="m 12.118644,56.78306 61.694916,0"
     id="path4288"
     inkscape:connector-curvature="0" />
  <path
     style="fill:none;fill-rule:evenodd;stroke:#cccccc;stroke-width:1px;stroke-linecap:butt;stroke-linejoin:miter;stroke-opacity:1"
     d="m 11.567796,131.69831 61.694916,0"
     id="path4288-6"
     inkscape:connector-curvature="0" />
  <path
     style="fill:none;fill-rule:evenodd;stroke:#cccccc;stroke-width:1px;stroke-linecap:butt;stroke-linejoin:miter;stroke-opacity:1"
     d="m 13.771186,208.26611 61.694916,0"
     id="path4288-6-7"
     inkscape:connector-curvature="0" />
  <path
     style="fill:none;fill-rule:evenodd;stroke:#cccccc;stroke-width:1px;stroke-linecap:butt;stroke-linejoin:miter;stroke-opacity:1"
     d="m 14.322034,272.71526 61.694916,0"
     id="path4288-6-3"
     inkscape:connector-curvature="0" />
  <path
     style="fill:none;fill-rule:evenodd;stroke:#cccccc;stroke-width:1px;stroke-linecap:butt;stroke-linejoin:miter;stroke-opacity:1"
     d="m 14.322034,342.12205 61.694916,0"
     id="path4288-6-9"
     inkscape:connector-curvature="0" />
  <path
     style="fill:none;fill-rule:evenodd;stroke:#cccccc;stroke-width:1px;stroke-linecap:butt;stroke-linejoin:miter;stroke-opacity:1"
     d="m 17.076271,414.28306 61.69492,0"
     id="path4288-6-8"
     inkscape:connector-curvature="0" />
</svg>
