<?xml version="1.0" encoding="UTF-8" standalone="no"?>
<svg
   xmlns:dc="http://purl.org/dc/elements/1.1/"
   xmlns:cc="http://creativecommons.org/ns#"
   xmlns:rdf="http://www.w3.org/1999/02/22-rdf-syntax-ns#"
   xmlns:svg="http://www.w3.org/2000/svg"
   xmlns="http://www.w3.org/2000/svg"
   xmlns:sodipodi="http://sodipodi.sourceforge.net/DTD/sodipodi-0.dtd"
   xmlns:inkscape="http://www.inkscape.org/namespaces/inkscape"
   width="150"
   height="150"
   version="1.1"
   viewBox="0 0 39.688 39.688"
   id="svg15"
   sodipodi:docname="wifi.svg"
   inkscape:version="0.92.4 (5da689c313, 2019-01-14)"
   class="wifi">
  <metadata
     id="metadata21">
    <rdf:RDF>
      <cc:Work
         rdf:about="">
        <dc:format>image/svg+xml</dc:format>
        <dc:type
           rdf:resource="http://purl.org/dc/dcmitype/StillImage" />
        <dc:title></dc:title>
      </cc:Work>
    </rdf:RDF>
  </metadata>
  <defs
     id="defs19" />
  <sodipodi:namedview
     pagecolor="#ffffff"
     bordercolor="#666666"
     borderopacity="1"
     objecttolerance="10"
     gridtolerance="10"
     guidetolerance="10"
     inkscape:pageopacity="0"
     inkscape:pageshadow="2"
     inkscape:window-width="1920"
     inkscape:window-height="1018"
     id="namedview17"
     showgrid="false"
     inkscape:zoom="1"
     inkscape:cx="-221"
     inkscape:cy="75"
     inkscape:window-x="1912"
     inkscape:window-y="112"
     inkscape:window-maximized="1"
     inkscape:current-layer="svg15" />
  <g
     id="g843"
     class="cable">
    <rect
       x="19.183001"
       y="-23.81225"
       width="1.3229001"
       height="26.855"
       style="stroke-width:0;stroke-miterlimit:0;paint-order:fill markers stroke"
       id="rect7" />
    <rect
       x="18.948"
       y="3.0241497"
       width="1.7916"
       height="2.4851"
       style="fill:none;stroke:#000000;stroke-width:0.20375;stroke-linecap:square;stroke-miterlimit:0;paint-order:fill markers stroke"
       id="rect9" />
  </g>
  <g
     id="g837"
     class="box">
    <path
       d="m 6.8303,14.157 v 19.412 h 26.027 V 14.157 Z"
       stroke-miterlimit="0"
       style="fill:#ffffff;stroke:#000000;stroke-width:0.26458001;stroke-linecap:square;stroke-miterlimit:0;paint-order:fill markers stroke"
       id="path2"
       inkscape:connector-curvature="0" />
    <g
       id="XMLID_2_"
       transform="matrix(0.52917,0,0,0.52917,81.5443,3.1469)"
       class="wifi-logo">
      <path
         id="XMLID_8_"
         class="st0"
         d="m -116.5,53.25 c -0.4,0 -1.2,-0.7 -2.6,-2.1 -1.4,-1.4 -2,-2.2 -2,-2.6 0,-0.6 0.6,-1.1 1.8,-1.5 1.2,-0.4 2.1,-0.6 2.9,-0.6 0.8,0 1.7,0.2 2.9,0.6 1.2,0.4 1.8,0.9 1.8,1.5 0,0.4 -0.7,1.2 -2,2.6 -1.3,1.4 -2.4,2.1 -2.8,2.1 z m 7.6,-7.6 c 0,0 -0.4,-0.2 -1.1,-0.7 -0.7,-0.5 -1.7,-0.9 -2.8,-1.4 -1.2,-0.5 -2.4,-0.7 -3.6,-0.7 -1.2,0 -2.4,0.2 -3.6,0.7 -1.2,0.5 -2.1,0.9 -2.8,1.4 -0.7,0.5 -1.1,0.7 -1.1,0.7 -0.3,0 -1.2,-0.7 -2.6,-2.1 -1.4,-1.4 -2.1,-2.3 -2.1,-2.6 0,-0.2 0.1,-0.5 0.3,-0.6 1.5,-1.4 3.3,-2.6 5.5,-3.4 2.2,-0.8 4.2,-1.2 6.3,-1.2 2.1,0 4.3,0.4 6.5,1.2 2.2,0.8 4,2 5.5,3.4 0.2,0.2 0.3,0.4 0.3,0.6 0,0.3 -0.7,1.2 -2.1,2.6 -1.4,1.4 -2.3,2.1 -2.6,2.1 z m 7.6,-7.6 c -0.2,0 -0.4,-0.1 -0.6,-0.2 -2.5,-2 -4.9,-3.4 -7.1,-4.3 -2.2,-0.9 -4.7,-1.4 -7.5,-1.4 -1.6,0 -3.2,0.2 -4.8,0.6 -1.6,0.4 -3,0.9 -4.2,1.5 -1.2,0.6 -2.2,1.2 -3.2,1.7 -0.9,0.6 -1.7,1.1 -2.2,1.5 -0.5,0.4 -0.8,0.6 -0.9,0.6 -0.3,0 -1.2,-0.7 -2.6,-2.1 -1.4,-1.4 -2.1,-2.3 -2.1,-2.6 0,-0.2 0.1,-0.4 0.3,-0.6 2.5,-2.5 5.5,-4.4 9,-5.7 3.5,-1.4 7.1,-2 10.6,-2 3.5,0 7.1,0.7 10.6,2 3.5,1.4 6.5,3.3 9,5.7 0.2,0.2 0.3,0.4 0.3,0.6 0,0.3 -0.7,1.2 -2.1,2.6 -1.3,1.4 -2.2,2.1 -2.5,2.1 z"
         inkscape:connector-curvature="0"
         style="fill:#333333" />
    </g>
  </g>
</svg>
